#N canvas 724 349 290 351 10;
#X obj 8 193 int;
#X msg 23 171 0;
#X obj 8 132 inlet;
#X text 9 117 metro;
#X obj 140 153 +;
#X obj 140 177 moses 0;
#X msg 230 221 100;
#X msg 140 221 0;
#X floatatom 179 238 5 0 0 0 - - -, f 5;
#X obj 179 198 moses 100;
#X obj 179 258 outlet;
#X obj 155 20 inlet;
#X msg 228 119 0;
#X obj 228 20 inlet;
#X text 225 3 no change;
#X text 154 3 up/down;
#X obj 155 98 sel 0 1;
#X obj 8 153 bng 15 250 50 0 empty empty empty 17 7 0 10 -262144 -1
-1;
#X obj 228 75 spigot;
#X obj 155 76 spigot;
#X obj 188 45 == 0;
#X floatatom 197 76 5 0 0 0 - - -, f 5;
#X floatatom 155 45 5 0 0 0 - - -, f 5;
#X obj 228 46 t f f;
#X msg 155 119 -12;
#X msg 193 119 12;
#X connect 0 0 4 0;
#X connect 1 0 0 1;
#X connect 2 0 17 0;
#X connect 4 0 5 0;
#X connect 5 0 7 0;
#X connect 5 1 9 0;
#X connect 6 0 8 0;
#X connect 7 0 8 0;
#X connect 8 0 0 1;
#X connect 8 0 10 0;
#X connect 9 0 8 0;
#X connect 9 1 6 0;
#X connect 11 0 22 0;
#X connect 12 0 4 1;
#X connect 13 0 20 0;
#X connect 13 0 23 0;
#X connect 16 0 24 0;
#X connect 16 1 25 0;
#X connect 17 0 0 0;
#X connect 18 0 12 0;
#X connect 19 0 16 0;
#X connect 20 0 21 0;
#X connect 20 0 19 1;
#X connect 22 0 19 0;
#X connect 23 0 18 0;
#X connect 23 1 18 1;
#X connect 24 0 4 1;
#X connect 25 0 4 1;
