#N canvas 23 203 450 300 10;
#X floatatom 85 148 5 0 0 0 - - -;
#X obj 80 14 r mode;
#X obj 124 15 r old_mode;
#X floatatom 80 38 5 0 0 0 - - -;
#X floatatom 124 38 5 0 0 0 - - -;
#X obj 85 128 expr scale_steps[$f1] - scale_steps[$f2];
#X msg 85 228 \; root_note \$1;
#X obj 85 180 +;
#X obj 335 106 r root_note;
#X floatatom 335 130 5 0 0 0 - - -;
#X floatatom 109 207 5 0 0 0 - - -;
#X obj 85 60 bondo 2;
#X connect 0 0 7 0;
#X connect 1 0 3 0;
#X connect 2 0 4 0;
#X connect 3 0 11 0;
#X connect 4 0 11 1;
#X connect 5 0 0 0;
#X connect 7 0 6 0;
#X connect 7 0 10 0;
#X connect 8 0 9 0;
#X connect 9 0 7 1;
#X connect 11 0 5 0;
#X connect 11 1 5 1;
