#N canvas 47 15 1273 691 10;
#X obj 26 19 table scale_degrees;
#X obj 208 160 hradio 15 1 0 10 empty empty empty 0 -8 0 10 -262144
-1 -1 8;
#X text 551 -17 major;
#X text 570 54 Dorian;
#X text 570 128 Phrygian;
#X text 576 203 Mixolydian;
#X obj 208 586 sel 0 1 2 3 4 5 6 7 8 9 10;
#X text 572 276 Lydian;
#X text 568 349 minor;
#X text 567 422 Locrian;
#X obj 208 23 inlet;
#X text 206 3 bang;
#X text 406 5 current note/root note;
#X text 309 4 mode;
#X obj 208 100 i;
#X floatatom 309 77 5 0 0 0 - - -;
#X text 306 92 current mode;
#X floatatom 308 117 5 0 0 0 - - -;
#X obj 309 22 r mode;
#X obj 411 51 i;
#X obj 411 22 r root_note;
#X floatatom 446 80 5 0 0 0 - - -;
#X obj 30 54 table scale_steps;
#X text 345 120 old_mode;
#X obj 308 138 s old_mode;
#X obj 146 53 bng 15 250 50 0 empty empty empty 17 7 0 10 -262144 -1
-1;
#X obj 219 50 bng 15 250 50 0 empty empty empty 17 7 0 10 -262144 -1
-1;
#X obj 35 104 change_root;
#X obj 348 52 bng 15 250 50 0 empty empty empty 17 7 0 10 -262144 -1
-1;
#X obj 348 76 outlet;
#X text 567 505 Dorian Pentatonic;
#X text 568 573 Whole Tone;
#X obj 371 497 flip_coin;
#X text 373 172 major;
#X text 376 209 Dorian;
#X text 376 247 Phrygian;
#X text 372 286 Mixolydian;
#X text 378 323 Lydian;
#X text 381 363 minor;
#X text 377 404 Locrian;
#X text 365 442 Dorian Pentatonic;
#X text 370 480 Whole Tone;
#X obj 372 190 flip_coin;
#X obj 372 226 flip_coin;
#X obj 372 264 flip_coin;
#X obj 372 302 flip_coin;
#X obj 372 339 flip_coin;
#X obj 372 380 flip_coin;
#X obj 372 420 flip_coin;
#X obj 371 458 flip_coin;
#X msg 35 84 1;
#X msg 548 586 \; scale_degrees 0 0 2 4 6 8 10 12 6 8 0 4 8 0 4 8 -1
-1 -1 \; mode 8 \; mode_name symbol Whole_Tone;
#X symbolatom 27 184 30 0 0 0 - - -;
#X obj 27 146 r mode_name;
#X obj 15 239 r scale_degrees;
#X obj 14 271 print scale_degrees;
#X obj 606 -16 r init_bang;
#X obj 369 542 flip_coin;
#X text 369 521 Half Diminished;
#X text 929 569 Half Diminished;
#X msg 913 584 \; scale_degrees 0 0 1 3 4 6 7 9 10 12 3 6 0 7 10 -1
-1 -1 -1 \; mode 9 \; mode_name symbol Half_Diminished;
#X msg 552 1 \; scale_degrees 0 0 2 4 5 7 9 11 12 0 4 7 0 4 -1 -1 -1
-1 -1 \; mode 0 \; mode_name symbol Major \;;
#X msg 554 74 \; scale_degrees 0 0 2 3 5 7 9 10 12 0 3 7 0 3 -1 -1
-1 -1 -1 \; mode 1 \; mode_name symbol Dorian \;;
#X msg 553 145 \; scale_degrees 0 0 1 3 5 7 8 10 12 0 3 7 0 3 -1 -1
-1 -1 -1 \; mode 2 \; mode_name symbol Phrygian \;;
#X msg 552 222 \; scale_degrees 0 0 2 4 6 7 9 11 12 0 4 7 0 4 -1 -1
-1 -1 -1 \; mode 3 \; mode_name symbol Mixolydian \;;
#X msg 549 294 \; scale_degrees 0 0 2 4 5 7 9 10 12 0 4 7 0 4 -1 -1
-1 -1 -1 \; mode 4 \; mode_name symbol Lydian \;;
#X msg 549 368 \; scale_degrees 0 0 2 3 5 7 8 10 12 0 3 7 0 3 -1 -1
-1 -1 -1 \; mode 5 \; mode_name symbol Minor;
#X msg 547 447 \; scale_degrees 0 0 1 3 5 6 8 10 12 0 3 6 0 3 -1 -1
-1 -1 -1 \; mode 6 \; mode_name symbol Locrian;
#X msg 548 521 \; scale_degrees 0 0 3 5 7 10 12 0 10 7 0 5 7 0 5 -1
-1 -1 -1 \; mode 7 \; mode_name symbol Dorian_Pentatonic;
#X connect 1 0 6 0;
#X connect 6 0 42 0;
#X connect 6 1 43 0;
#X connect 6 2 44 0;
#X connect 6 3 45 0;
#X connect 6 4 46 0;
#X connect 6 5 47 0;
#X connect 6 6 48 0;
#X connect 6 7 49 0;
#X connect 6 8 32 0;
#X connect 6 9 57 0;
#X connect 10 0 14 0;
#X connect 10 0 25 0;
#X connect 10 0 26 0;
#X connect 14 0 1 0;
#X connect 14 0 17 0;
#X connect 17 0 24 0;
#X connect 18 0 15 0;
#X connect 18 0 14 1;
#X connect 18 0 28 0;
#X connect 19 0 21 0;
#X connect 20 0 19 0;
#X connect 25 0 50 0;
#X connect 28 0 29 0;
#X connect 32 0 64 0;
#X connect 32 1 65 0;
#X connect 32 2 61 0;
#X connect 42 0 63 0;
#X connect 42 1 66 0;
#X connect 42 2 68 0;
#X connect 43 0 67 0;
#X connect 43 1 64 0;
#X connect 43 2 65 0;
#X connect 44 0 65 0;
#X connect 44 1 61 0;
#X connect 44 2 67 0;
#X connect 45 0 62 0;
#X connect 45 1 60 0;
#X connect 45 2 51 0;
#X connect 46 0 63 0;
#X connect 46 1 67 0;
#X connect 46 2 60 0;
#X connect 47 0 61 0;
#X connect 47 1 64 0;
#X connect 47 2 63 0;
#X connect 48 0 61 0;
#X connect 48 1 60 0;
#X connect 48 2 51 0;
#X connect 49 0 51 0;
#X connect 49 1 65 0;
#X connect 49 2 66 0;
#X connect 50 0 27 0;
#X connect 53 0 52 0;
#X connect 54 0 55 0;
#X connect 56 0 61 0;
#X connect 57 0 62 0;
#X connect 57 1 68 0;
#X connect 57 2 66 0;
