#N canvas 77 208 1191 485 10;
#X obj 26 19 table scale_degrees;
#X msg 33 320 \; scale_degrees 0 0 2 4 5 7 9 11 12;
#X obj 301 93 counter;
#X obj 301 127 % 8;
#X obj 278 164 hradio 15 1 0 10 empty empty empty 0 -8 0 10 -262144
-1 -1 5;
#X msg 344 61 0;
#X msg 383 60 1;
#X msg 419 62 0;
#X text 62 301 major;
#X msg 184 257 \; scale_degrees 0 0 2 3 5 7 9 10 12;
#X text 201 239 Dorian;
#X msg 257 320 \; scale_degrees 0 0 1 3 5 7 8 10 12;
#X text 274 303 Phrygian;
#X msg 412 258 \; scale_degrees 0 0 2 4 6 7 9 11 12;
#X text 436 239 Mixolydian;
#X obj 278 193 sel 0 1 2 3 4 5 6 7 8 9 10;
#X msg 483 319 \; scale_degrees 0 0 2 4 5 7 9 10 12;
#X text 506 302 Lydian;
#X msg 637 256 \; scale_degrees 0 0 2 3 5 7 8 10 12;
#X text 656 237 minor;
#X msg 713 318 \; scale_degrees 0 0 1 3 5 6 8 10 12;
#X text 733 302 Locrian;
#X obj 32 301 bng 15 250 50 0 empty empty empty 17 7 0 10 -262144 -1
-1;
#X obj 298 23 inlet;
#X obj 245 74 bng 15 250 50 0 empty empty empty 17 7 0 10 -262144 -1
-1;
#X connect 2 0 3 0;
#X connect 3 0 4 0;
#X connect 4 0 15 0;
#X connect 5 0 2 1;
#X connect 6 0 2 1;
#X connect 7 0 2 3;
#X connect 15 1 22 0;
#X connect 15 2 9 0;
#X connect 15 3 11 0;
#X connect 15 4 13 0;
#X connect 15 5 16 0;
#X connect 15 6 18 0;
#X connect 15 7 20 0;
#X connect 22 0 1 0;
#X connect 23 0 2 0;
#X connect 24 0 2 0;
