#N canvas 241 152 450 399 10;
#X obj 37 306 pack f f f f f f f f;
#X obj 154 22 inlet;
#X obj 9 11 table sequence;
#X msg 37 334 \; sequence 0 \$1 \$2 \$3 \$4 \$5 \$6 \$7 \$8;
#X floatatom 298 53 5 0 0 0 - - -;
#X obj 167 44 bng 15 250 50 0 empty empty empty 17 7 0 10 -262144 -1
-1;
#X floatatom 37 132 5 0 0 0 - - -;
#X floatatom 53 155 5 0 0 0 - - -;
#X floatatom 70 177 5 0 0 0 - - -;
#X floatatom 87 199 5 0 0 0 - - -;
#X floatatom 103 220 5 0 0 0 - - -;
#X floatatom 120 241 5 0 0 0 - - -;
#X floatatom 137 262 5 0 0 0 - - -;
#X floatatom 154 283 5 0 0 0 - - -;
#X obj 283 22 r root_note;
#X obj 37 65 get_note_from_sequence;
#X obj 53 88 get_note_from_sequence;
#X obj 70 111 get_note_from_sequence;
#X obj 87 134 get_note_from_sequence;
#X obj 103 160 get_note_from_sequence;
#X obj 120 183 get_note_from_sequence;
#X obj 137 205 get_note_from_sequence;
#X obj 154 229 get_note_from_sequence;
#X connect 0 0 3 0;
#X connect 1 0 5 0;
#X connect 1 0 15 0;
#X connect 1 0 16 0;
#X connect 1 0 17 0;
#X connect 1 0 18 0;
#X connect 1 0 19 0;
#X connect 1 0 20 0;
#X connect 1 0 21 0;
#X connect 1 0 22 0;
#X connect 6 0 0 0;
#X connect 7 0 0 1;
#X connect 8 0 0 2;
#X connect 9 0 0 3;
#X connect 10 0 0 4;
#X connect 11 0 0 5;
#X connect 12 0 0 6;
#X connect 13 0 0 7;
#X connect 14 0 4 0;
#X connect 14 0 15 1;
#X connect 14 0 16 1;
#X connect 14 0 17 1;
#X connect 14 0 18 1;
#X connect 14 0 19 1;
#X connect 14 0 20 1;
#X connect 14 0 21 1;
#X connect 14 0 22 1;
#X connect 15 0 6 0;
#X connect 16 0 7 0;
#X connect 17 0 8 0;
#X connect 18 0 9 0;
#X connect 19 0 10 0;
#X connect 20 0 11 0;
#X connect 21 0 12 0;
#X connect 22 0 13 0;
