#N canvas 881 280 450 399 10;
#X obj 37 306 pack f f f f f f f f;
#N canvas 414 52 287 234 get_note_from_sequence 1;
#X obj 5 31 random 8;
#X obj 5 130 expr scale_degrees[$f1] + $f2;
#X obj 5 10 inlet;
#X obj 5 183 outlet;
#X obj 176 10 inlet;
#X floatatom 5 64 5 0 0 0 - - -;
#X obj 48 80 expr scale_degrees[$f1];
#X floatatom 48 101 5 0 0 0 - - -;
#X floatatom 176 106 5 0 0 0 - - -;
#X floatatom 5 152 5 0 0 0 - - -;
#X connect 0 0 5 0;
#X connect 1 0 9 0;
#X connect 2 0 0 0;
#X connect 4 0 8 0;
#X connect 5 0 1 0;
#X connect 5 0 6 0;
#X connect 6 0 7 0;
#X connect 8 0 1 1;
#X connect 9 0 3 0;
#X restore 37 63 pd get_note_from_sequence;
#N canvas 811 269 450 300 get_note_from_sequence 0;
#X obj 98 87 random 8;
#X obj 98 114 expr scale_degrees[$f1] + $f2;
#X obj 97 55 inlet;
#X obj 98 145 outlet;
#X obj 269 56 inlet;
#X connect 0 0 1 0;
#X connect 1 0 3 0;
#X connect 2 0 0 0;
#X connect 4 0 1 1;
#X restore 87 132 pd get_note_from_sequence;
#N canvas 811 269 450 300 get_note_from_sequence 0;
#X obj 98 87 random 8;
#X obj 98 114 expr scale_degrees[$f1] + $f2;
#X obj 97 55 inlet;
#X obj 98 145 outlet;
#X obj 269 56 inlet;
#X connect 0 0 1 0;
#X connect 1 0 3 0;
#X connect 2 0 0 0;
#X connect 4 0 1 1;
#X restore 137 203 pd get_note_from_sequence;
#N canvas 811 269 450 300 get_note_from_sequence 0;
#X obj 98 87 random 8;
#X obj 98 114 expr scale_degrees[$f1] + $f2;
#X obj 97 55 inlet;
#X obj 98 145 outlet;
#X obj 269 56 inlet;
#X connect 0 0 1 0;
#X connect 1 0 3 0;
#X connect 2 0 0 0;
#X connect 4 0 1 1;
#X restore 53 86 pd get_note_from_sequence;
#N canvas 811 269 450 300 get_note_from_sequence 0;
#X obj 98 87 random 8;
#X obj 98 114 expr scale_degrees[$f1] + $f2;
#X obj 97 55 inlet;
#X obj 98 145 outlet;
#X obj 269 56 inlet;
#X connect 0 0 1 0;
#X connect 1 0 3 0;
#X connect 2 0 0 0;
#X connect 4 0 1 1;
#X restore 103 158 pd get_note_from_sequence;
#N canvas 811 269 450 300 get_note_from_sequence 0;
#X obj 98 87 random 8;
#X obj 98 114 expr scale_degrees[$f1] + $f2;
#X obj 97 55 inlet;
#X obj 98 145 outlet;
#X obj 269 56 inlet;
#X connect 0 0 1 0;
#X connect 1 0 3 0;
#X connect 2 0 0 0;
#X connect 4 0 1 1;
#X restore 120 181 pd get_note_from_sequence;
#N canvas 811 269 450 300 get_note_from_sequence 0;
#X obj 98 87 random 8;
#X obj 98 114 expr scale_degrees[$f1] + $f2;
#X obj 97 55 inlet;
#X obj 98 145 outlet;
#X obj 269 56 inlet;
#X connect 0 0 1 0;
#X connect 1 0 3 0;
#X connect 2 0 0 0;
#X connect 4 0 1 1;
#X restore 70 109 pd get_note_from_sequence;
#N canvas 411 378 450 300 get_note_from_sequence 1;
#X obj 98 87 random 8;
#X obj 98 114 expr scale_degrees[$f1] + $f2;
#X obj 97 55 inlet;
#X obj 98 145 outlet;
#X obj 269 56 inlet;
#X connect 0 0 1 0;
#X connect 1 0 3 0;
#X connect 2 0 0 0;
#X connect 4 0 1 1;
#X restore 154 227 pd get_note_from_sequence;
#X obj 301 19 inlet;
#X obj 154 22 inlet;
#X obj 9 11 table sequence;
#X msg 37 334 \; sequence 0 \$1 \$2 \$3 \$4 \$5 \$6 \$7 \$8;
#X floatatom 315 43 5 0 0 0 - - -;
#X obj 167 44 bng 15 250 50 0 empty empty empty 17 7 0 10 -262144 -1
-1;
#X floatatom 37 132 5 0 0 0 - - -;
#X floatatom 53 155 5 0 0 0 - - -;
#X floatatom 70 177 5 0 0 0 - - -;
#X floatatom 87 199 5 0 0 0 - - -;
#X floatatom 103 220 5 0 0 0 - - -;
#X floatatom 120 241 5 0 0 0 - - -;
#X floatatom 137 262 5 0 0 0 - - -;
#X floatatom 154 283 5 0 0 0 - - -;
#X connect 0 0 12 0;
#X connect 1 0 15 0;
#X connect 2 0 18 0;
#X connect 3 0 21 0;
#X connect 4 0 16 0;
#X connect 5 0 19 0;
#X connect 6 0 20 0;
#X connect 7 0 17 0;
#X connect 8 0 22 0;
#X connect 9 0 1 1;
#X connect 9 0 4 1;
#X connect 9 0 7 1;
#X connect 9 0 2 1;
#X connect 9 0 5 1;
#X connect 9 0 6 1;
#X connect 9 0 3 1;
#X connect 9 0 8 1;
#X connect 9 0 13 0;
#X connect 10 0 1 0;
#X connect 10 0 4 0;
#X connect 10 0 7 0;
#X connect 10 0 2 0;
#X connect 10 0 5 0;
#X connect 10 0 6 0;
#X connect 10 0 3 0;
#X connect 10 0 8 0;
#X connect 10 0 14 0;
#X connect 15 0 0 0;
#X connect 16 0 0 1;
#X connect 17 0 0 2;
#X connect 18 0 0 3;
#X connect 19 0 0 4;
#X connect 20 0 0 5;
#X connect 21 0 0 6;
#X connect 22 0 0 7;
