#N canvas 58 268 450 300 10;
#X obj 141 28 inlet;
#X text 311 12 root note;
#X obj 141 203 pack f f f f;
#X msg 141 254 \; bassline 0 \$1 \$2 \$3 \$4;
#X obj 12 19 table bassline;
#X obj 312 31 r root_note;
#X obj 187 225 print;
#X obj 141 80 expr scale_degrees[0] + $f1;
#X obj 164 104 expr scale_degrees[2] + $f1;
#X obj 187 128 expr scale_degrees[4] + $f1;
#X obj 210 156 expr scale_degrees[7] + $f1;
#X text 145 10 bang (not necessary);
#X connect 2 0 3 0;
#X connect 2 0 6 0;
#X connect 5 0 10 0;
#X connect 5 0 9 0;
#X connect 5 0 8 0;
#X connect 5 0 7 0;
#X connect 7 0 2 0;
#X connect 8 0 2 1;
#X connect 9 0 2 2;
#X connect 10 0 2 3;
