#N canvas 822 184 450 452 10;
#X obj 141 28 inlet;
#X text 311 12 root note;
#X obj 141 358 pack f f f f;
#X msg 141 409 \; bassline 0 \$1 \$2 \$3 \$4;
#X obj 12 19 table bassline;
#X obj 312 31 r root_note;
#X text 145 10 bang (not necessary);
#X floatatom 133 315 5 0 0 0 - - -;
#X floatatom 171 316 5 0 0 0 - - -;
#X floatatom 211 315 5 0 0 0 - - -;
#X floatatom 253 315 5 0 0 0 - - -;
#X obj 152 195 sel 0;
#X obj 194 209 sel 0;
#X obj 239 227 sel 0;
#X obj 292 234 sel 0;
#X obj 110 246 bng 15 250 50 0 empty empty empty 17 7 0 10 -262144
-1 -1;
#X msg 130 260 0;
#X msg 193 269 0;
#X msg 249 276 0;
#X msg 315 272 0;
#X obj 161 265 - 24;
#X obj 219 269 - 24;
#X obj 276 274 - 24;
#X obj 349 273 - 24;
#X obj 216 375 print bassline;
#X floatatom 361 118 5 0 0 0 - - -;
#X obj 143 124 get_other_note_from_sequence;
#X obj 192 152 get_other_note_from_sequence;
#X obj 220 174 get_other_note_from_sequence;
#X obj 257 197 get_other_note_from_sequence;
#X obj 143 55 bng 15 250 50 0 empty empty empty 17 7 0 10 -262144 -1
-1;
#X obj 142 77 t b b b b;
#X connect 0 0 30 0;
#X connect 2 0 3 0;
#X connect 2 0 24 0;
#X connect 5 0 25 0;
#X connect 7 0 2 0;
#X connect 8 0 2 1;
#X connect 9 0 2 2;
#X connect 10 0 2 3;
#X connect 11 0 15 0;
#X connect 11 0 16 0;
#X connect 11 1 20 0;
#X connect 12 0 17 0;
#X connect 12 1 21 0;
#X connect 13 0 18 0;
#X connect 13 1 22 0;
#X connect 14 0 19 0;
#X connect 14 1 23 0;
#X connect 16 0 7 0;
#X connect 20 0 7 0;
#X connect 21 0 8 0;
#X connect 22 0 9 0;
#X connect 23 0 10 0;
#X connect 25 0 26 1;
#X connect 25 0 27 1;
#X connect 25 0 28 1;
#X connect 25 0 29 1;
#X connect 26 0 11 0;
#X connect 27 0 12 0;
#X connect 28 0 13 0;
#X connect 29 0 14 0;
#X connect 30 0 31 0;
#X connect 31 0 26 0;
#X connect 31 1 27 0;
#X connect 31 2 28 0;
#X connect 31 3 29 0;
