#N canvas 241 22 558 637 10;
#X obj 154 22 inlet;
#X floatatom 423 120 5 0 0 0 - - -;
#X obj 167 44 bng 15 250 50 0 empty empty empty 17 7 0 10 -262144 -1
-1;
#X floatatom 37 203 5 0 0 0 - - -;
#X floatatom 53 226 5 0 0 0 - - -;
#X floatatom 70 248 5 0 0 0 - - -;
#X floatatom 87 270 5 0 0 0 - - -;
#X floatatom 103 291 5 0 0 0 - - -;
#X floatatom 120 312 5 0 0 0 - - -;
#X floatatom 137 333 5 0 0 0 - - -;
#X floatatom 154 354 5 0 0 0 - - -;
#X obj 423 33 r root_note;
#X obj 458 121 bng 15 250 50 0 empty empty empty 17 7 0 10 -262144
-1 -1;
#X obj 154 300 get_note_from_sequence;
#X obj 37 136 get_note_from_sequence;
#X obj 53 159 get_note_from_sequence;
#X obj 70 182 get_note_from_sequence;
#X obj 87 205 get_note_from_sequence;
#X obj 103 231 get_note_from_sequence;
#X obj 120 254 get_note_from_sequence;
#X obj 137 276 get_note_from_sequence;
#X floatatom 172 376 5 0 0 0 - - -;
#X obj 172 322 get_note_from_sequence;
#X floatatom 189 397 5 0 0 0 - - -;
#X obj 189 343 get_note_from_sequence;
#X floatatom 206 418 5 0 0 0 - - -;
#X obj 206 364 get_note_from_sequence;
#X floatatom 221 440 5 0 0 0 - - -;
#X obj 221 386 get_note_from_sequence;
#X floatatom 242 461 5 0 0 0 - - -;
#X obj 242 407 get_note_from_sequence;
#X floatatom 257 482 5 0 0 0 - - -;
#X obj 257 428 get_note_from_sequence;
#X floatatom 277 502 5 0 0 0 - - -;
#X obj 277 448 get_note_from_sequence;
#X floatatom 294 522 5 0 0 0 - - -;
#X obj 294 468 get_note_from_sequence;
#X obj 36 71 t b b b b b b b b b b b b b b b b;
#X obj 37 564 pack f f f f f f f f f f f f f f f f;
#X obj 287 563 pack f f f f f f f f f f f f f f f f;
#X obj 9 11 table sequence3;
#X obj 161 581 print sequence3;
#X obj 325 581 print sequence3_degrees;
#X msg 37 602 \; sequence3 0 \$1 \$2 \$3 \$4 \$5 \$6 \$7 \$8 \$9 \$10
\$11 \$12 \$13 \$14 \$15 \$16;
#X connect 0 0 2 0;
#X connect 1 0 13 1;
#X connect 1 0 14 1;
#X connect 1 0 15 1;
#X connect 1 0 16 1;
#X connect 1 0 17 1;
#X connect 1 0 18 1;
#X connect 1 0 20 1;
#X connect 1 0 36 1;
#X connect 1 0 34 1;
#X connect 1 0 32 1;
#X connect 1 0 30 1;
#X connect 1 0 28 1;
#X connect 1 0 26 1;
#X connect 1 0 24 1;
#X connect 1 0 22 1;
#X connect 2 0 37 0;
#X connect 3 0 38 0;
#X connect 4 0 38 1;
#X connect 5 0 38 2;
#X connect 6 0 38 3;
#X connect 7 0 38 4;
#X connect 8 0 38 5;
#X connect 9 0 38 6;
#X connect 10 0 38 7;
#X connect 11 0 1 0;
#X connect 11 0 12 0;
#X connect 13 0 10 0;
#X connect 13 1 39 7;
#X connect 14 0 3 0;
#X connect 14 1 39 0;
#X connect 15 0 4 0;
#X connect 15 1 39 1;
#X connect 16 0 5 0;
#X connect 16 1 39 2;
#X connect 17 0 6 0;
#X connect 17 1 39 3;
#X connect 18 0 7 0;
#X connect 18 1 39 4;
#X connect 19 0 8 0;
#X connect 19 1 39 5;
#X connect 20 0 9 0;
#X connect 20 1 39 6;
#X connect 21 0 38 8;
#X connect 22 0 21 0;
#X connect 22 1 39 8;
#X connect 23 0 38 9;
#X connect 24 0 23 0;
#X connect 24 1 39 9;
#X connect 25 0 38 10;
#X connect 26 0 25 0;
#X connect 26 1 39 10;
#X connect 27 0 38 11;
#X connect 28 0 27 0;
#X connect 28 1 39 11;
#X connect 29 0 38 12;
#X connect 30 0 29 0;
#X connect 30 1 39 12;
#X connect 31 0 38 13;
#X connect 32 0 31 0;
#X connect 32 1 39 13;
#X connect 33 0 38 14;
#X connect 34 0 33 0;
#X connect 34 1 39 14;
#X connect 35 0 38 15;
#X connect 36 0 35 0;
#X connect 36 1 39 15;
#X connect 37 0 14 0;
#X connect 37 1 15 0;
#X connect 37 2 16 0;
#X connect 37 3 17 0;
#X connect 37 4 18 0;
#X connect 37 5 19 0;
#X connect 37 6 20 0;
#X connect 37 7 13 0;
#X connect 37 8 22 0;
#X connect 37 9 24 0;
#X connect 37 10 26 0;
#X connect 37 11 28 0;
#X connect 37 12 30 0;
#X connect 37 13 32 0;
#X connect 37 14 34 0;
#X connect 37 15 36 0;
#X connect 38 0 43 0;
#X connect 38 0 41 0;
#X connect 39 0 42 0;
