#N canvas 0 0 458 392 10;
#X obj 47 316 pack f f f f f f f f;
#X obj 164 32 inlet;
#X floatatom 308 63 5 0 0 0 - - -;
#X obj 177 54 bng 15 250 50 0 empty empty empty 17 7 0 10 -262144 -1
-1;
#X floatatom 47 142 5 0 0 0 - - -;
#X floatatom 63 165 5 0 0 0 - - -;
#X floatatom 80 187 5 0 0 0 - - -;
#X floatatom 97 209 5 0 0 0 - - -;
#X floatatom 113 230 5 0 0 0 - - -;
#X floatatom 130 251 5 0 0 0 - - -;
#X floatatom 147 272 5 0 0 0 - - -;
#X floatatom 164 293 5 0 0 0 - - -;
#X obj 293 32 r root_note;
#X obj 47 75 get_note_from_sequence;
#X obj 63 98 get_note_from_sequence;
#X obj 80 121 get_note_from_sequence;
#X obj 97 144 get_note_from_sequence;
#X obj 113 170 get_note_from_sequence;
#X obj 130 193 get_note_from_sequence;
#X obj 147 215 get_note_from_sequence;
#X obj 164 239 get_note_from_sequence;
#X obj 19 21 table sequence2;
#X msg 47 344 \; sequence2 0 \$1 \$2 \$3 \$4 \$5 \$6 \$7 \$8;
#X connect 0 0 22 0;
#X connect 1 0 3 0;
#X connect 1 0 13 0;
#X connect 1 0 14 0;
#X connect 1 0 15 0;
#X connect 1 0 16 0;
#X connect 1 0 17 0;
#X connect 1 0 18 0;
#X connect 1 0 19 0;
#X connect 1 0 20 0;
#X connect 4 0 0 0;
#X connect 5 0 0 1;
#X connect 6 0 0 2;
#X connect 7 0 0 3;
#X connect 8 0 0 4;
#X connect 9 0 0 5;
#X connect 10 0 0 6;
#X connect 11 0 0 7;
#X connect 12 0 2 0;
#X connect 12 0 13 1;
#X connect 12 0 14 1;
#X connect 12 0 15 1;
#X connect 12 0 16 1;
#X connect 12 0 17 1;
#X connect 12 0 18 1;
#X connect 12 0 19 1;
#X connect 12 0 20 1;
#X connect 13 0 4 0;
#X connect 14 0 5 0;
#X connect 15 0 6 0;
#X connect 16 0 7 0;
#X connect 17 0 8 0;
#X connect 18 0 9 0;
#X connect 19 0 10 0;
#X connect 20 0 11 0;
