#N canvas 759 16 558 637 10;
#X obj 154 22 inlet;
#X obj 9 11 table sequence;
#X floatatom 423 120 5 0 0 0 - - -;
#X obj 167 44 bng 15 250 50 0 empty empty empty 17 7 0 10 -262144 -1
-1;
#X floatatom 37 203 5 0 0 0 - - -;
#X floatatom 53 226 5 0 0 0 - - -;
#X floatatom 70 248 5 0 0 0 - - -;
#X floatatom 87 270 5 0 0 0 - - -;
#X floatatom 103 291 5 0 0 0 - - -;
#X floatatom 120 312 5 0 0 0 - - -;
#X floatatom 137 333 5 0 0 0 - - -;
#X floatatom 154 354 5 0 0 0 - - -;
#X obj 423 33 r root_note;
#X obj 161 581 print sequence;
#X obj 458 121 bng 15 250 50 0 empty empty empty 17 7 0 10 -262144
-1 -1;
#X obj 154 300 get_note_from_sequence;
#X obj 37 136 get_note_from_sequence;
#X obj 53 159 get_note_from_sequence;
#X obj 70 182 get_note_from_sequence;
#X obj 87 205 get_note_from_sequence;
#X obj 103 231 get_note_from_sequence;
#X obj 120 254 get_note_from_sequence;
#X obj 137 276 get_note_from_sequence;
#X obj 325 581 print sequence_degrees;
#X floatatom 172 376 5 0 0 0 - - -;
#X obj 172 322 get_note_from_sequence;
#X floatatom 189 397 5 0 0 0 - - -;
#X obj 189 343 get_note_from_sequence;
#X floatatom 206 418 5 0 0 0 - - -;
#X obj 206 364 get_note_from_sequence;
#X floatatom 221 440 5 0 0 0 - - -;
#X obj 221 386 get_note_from_sequence;
#X floatatom 242 461 5 0 0 0 - - -;
#X obj 242 407 get_note_from_sequence;
#X floatatom 257 482 5 0 0 0 - - -;
#X obj 257 428 get_note_from_sequence;
#X floatatom 277 502 5 0 0 0 - - -;
#X obj 277 448 get_note_from_sequence;
#X floatatom 294 522 5 0 0 0 - - -;
#X obj 294 468 get_note_from_sequence;
#X obj 36 71 t b b b b b b b b b b b b b b b b;
#X obj 37 564 pack f f f f f f f f f f f f f f f f;
#X msg 37 602 \; sequence 0 \$1 \$2 \$3 \$4 \$5 \$6 \$7 \$8 \$9 \$10
\$11 \$12 \$13 \$14 \$15 \$16;
#X obj 287 563 pack f f f f f f f f f f f f f f f f;
#X connect 0 0 3 0;
#X connect 2 0 15 1;
#X connect 2 0 16 1;
#X connect 2 0 17 1;
#X connect 2 0 18 1;
#X connect 2 0 19 1;
#X connect 2 0 20 1;
#X connect 2 0 22 1;
#X connect 2 0 39 1;
#X connect 2 0 37 1;
#X connect 2 0 35 1;
#X connect 2 0 33 1;
#X connect 2 0 31 1;
#X connect 2 0 29 1;
#X connect 2 0 27 1;
#X connect 2 0 25 1;
#X connect 3 0 40 0;
#X connect 4 0 41 0;
#X connect 5 0 41 1;
#X connect 6 0 41 2;
#X connect 7 0 41 3;
#X connect 8 0 41 4;
#X connect 9 0 41 5;
#X connect 10 0 41 6;
#X connect 11 0 41 7;
#X connect 12 0 2 0;
#X connect 12 0 14 0;
#X connect 15 0 11 0;
#X connect 15 1 43 7;
#X connect 16 0 4 0;
#X connect 16 1 43 0;
#X connect 17 0 5 0;
#X connect 17 1 43 1;
#X connect 18 0 6 0;
#X connect 18 1 43 2;
#X connect 19 0 7 0;
#X connect 19 1 43 3;
#X connect 20 0 8 0;
#X connect 20 1 43 4;
#X connect 21 0 9 0;
#X connect 21 1 43 5;
#X connect 22 0 10 0;
#X connect 22 1 43 6;
#X connect 24 0 41 8;
#X connect 25 0 24 0;
#X connect 25 1 43 8;
#X connect 26 0 41 9;
#X connect 27 0 26 0;
#X connect 27 1 43 9;
#X connect 28 0 41 10;
#X connect 29 0 28 0;
#X connect 29 1 43 10;
#X connect 30 0 41 11;
#X connect 31 0 30 0;
#X connect 31 1 43 11;
#X connect 32 0 41 12;
#X connect 33 0 32 0;
#X connect 33 1 43 12;
#X connect 34 0 41 13;
#X connect 35 0 34 0;
#X connect 35 1 43 13;
#X connect 36 0 41 14;
#X connect 37 0 36 0;
#X connect 37 1 43 14;
#X connect 38 0 41 15;
#X connect 39 0 38 0;
#X connect 39 1 43 15;
#X connect 40 0 16 0;
#X connect 40 1 17 0;
#X connect 40 2 18 0;
#X connect 40 3 19 0;
#X connect 40 4 20 0;
#X connect 40 5 21 0;
#X connect 40 6 22 0;
#X connect 40 7 15 0;
#X connect 40 8 25 0;
#X connect 40 9 27 0;
#X connect 40 10 29 0;
#X connect 40 11 31 0;
#X connect 40 12 33 0;
#X connect 40 13 35 0;
#X connect 40 14 37 0;
#X connect 40 15 39 0;
#X connect 41 0 42 0;
#X connect 41 0 13 0;
#X connect 43 0 23 0;
