#N canvas 807 54 525 535 10;
#X obj 47 350 pack f f f f f f f f;
#X obj 164 32 inlet;
#X floatatom 308 98 5 0 0 0 - - -;
#X obj 177 54 bng 15 250 50 0 empty empty empty 17 7 0 10 -262144 -1
-1;
#X floatatom 47 177 5 0 0 0 - - -;
#X floatatom 63 200 5 0 0 0 - - -;
#X floatatom 80 222 5 0 0 0 - - -;
#X floatatom 97 244 5 0 0 0 - - -;
#X floatatom 113 265 5 0 0 0 - - -;
#X floatatom 130 286 5 0 0 0 - - -;
#X floatatom 147 307 5 0 0 0 - - -;
#X floatatom 164 328 5 0 0 0 - - -;
#X obj 293 32 r root_note;
#X obj 19 21 table sequence2;
#X msg 47 391 \; sequence2 0 \$1 \$2 \$3 \$4 \$5 \$6 \$7 \$8;
#X obj 164 274 get_other_note_from_sequence;
#X obj 55 367 print sequence2;
#X obj 329 311 print sequence2_root;
#X floatatom 253 428 5 0 0 0 - - -;
#X floatatom 280 428 5 0 0 0 - - -;
#X floatatom 296 428 5 0 0 0 - - -;
#X floatatom 318 429 5 0 0 0 - - -;
#X floatatom 344 429 5 0 0 0 - - -;
#X floatatom 372 430 5 0 0 0 - - -;
#X floatatom 397 431 5 0 0 0 - - -;
#X floatatom 219 428 5 0 0 0 - - -;
#X obj 234 488 pack f f f f f f f f;
#X obj 234 505 print sequence2_degrees;
#X obj 47 110 get_other_note_from_sequence;
#X obj 63 133 get_other_note_from_sequence;
#X obj 80 156 get_other_note_from_sequence;
#X obj 97 179 get_other_note_from_sequence;
#X obj 113 205 get_other_note_from_sequence;
#X obj 130 228 get_other_note_from_sequence;
#X obj 147 250 get_other_note_from_sequence;
#X obj 69 84 t b b b b b b b b;
#X obj 353 291 s curr_root;
#X connect 0 0 14 0;
#X connect 0 0 16 0;
#X connect 1 0 3 0;
#X connect 2 0 15 1;
#X connect 2 0 28 1;
#X connect 2 0 29 1;
#X connect 2 0 30 1;
#X connect 2 0 31 1;
#X connect 2 0 32 1;
#X connect 2 0 33 1;
#X connect 2 0 34 1;
#X connect 3 0 35 0;
#X connect 4 0 0 0;
#X connect 5 0 0 1;
#X connect 6 0 0 2;
#X connect 7 0 0 3;
#X connect 8 0 0 4;
#X connect 9 0 0 5;
#X connect 10 0 0 6;
#X connect 11 0 0 7;
#X connect 12 0 2 0;
#X connect 15 0 11 0;
#X connect 15 1 24 0;
#X connect 15 2 17 0;
#X connect 15 2 36 0;
#X connect 18 0 26 1;
#X connect 19 0 26 2;
#X connect 20 0 26 3;
#X connect 21 0 26 4;
#X connect 22 0 26 5;
#X connect 23 0 26 6;
#X connect 24 0 26 7;
#X connect 25 0 26 0;
#X connect 26 0 27 0;
#X connect 28 0 4 0;
#X connect 28 1 25 0;
#X connect 29 0 5 0;
#X connect 29 1 18 0;
#X connect 30 0 6 0;
#X connect 30 1 19 0;
#X connect 31 0 7 0;
#X connect 31 1 20 0;
#X connect 32 0 8 0;
#X connect 32 1 21 0;
#X connect 33 0 9 0;
#X connect 33 1 22 0;
#X connect 34 0 10 0;
#X connect 34 1 23 0;
#X connect 35 0 28 0;
#X connect 35 1 29 0;
#X connect 35 2 30 0;
#X connect 35 3 31 0;
#X connect 35 4 32 0;
#X connect 35 5 33 0;
#X connect 35 6 34 0;
#X connect 35 7 15 0;
