#N canvas 672 188 620 300 10;
#X obj 108 65 inlet;
#X obj 108 195 outlet;
#X obj 435 66 inlet;
#X obj 108 97 random 18;
#X obj 449 105 bng 15 250 50 0 empty empty empty 17 7 0 10 -262144
-1 -1;
#X obj 175 81 bng 15 250 50 0 empty empty empty 17 7 0 10 -262144 -1
-1;
#X obj 107 136 expr if(scale_degrees[$f1]+1 \, scale_degrees[$f1] +
$f2 \, scale_degrees[$f1]+1) \; scale_degrees[$f1];
#X obj 440 197 outlet;
#X connect 0 0 3 0;
#X connect 0 0 5 0;
#X connect 2 0 4 0;
#X connect 2 0 6 1;
#X connect 3 0 6 0;
#X connect 6 0 1 0;
#X connect 6 1 7 0;
