#N canvas 239 110 450 300 10;
#X floatatom 177 197 5 0 0 0 - - -;
#X obj 177 66 inlet;
#X obj 177 225 s root_note;
#X obj 268 226 s initial_root;
#X obj 219 174 bng 15 250 50 0 empty empty empty 17 7 0 10 -262144
-1 -1;
#X obj 182 149 + 30;
#X obj 183 107 random 30;
#X connect 0 0 2 0;
#X connect 0 0 3 0;
#X connect 1 0 6 0;
#X connect 4 0 0 0;
#X connect 5 0 0 0;
#X connect 6 0 5 0;
