#N canvas 239 110 450 300 10;
#X floatatom 177 197 5 0 0 0 - - -;
#X obj 177 66 inlet;
#X obj 177 225 s root_note;
#X obj 183 107 random 40;
#X obj 182 149 + 40;
#X connect 0 0 2 0;
#X connect 1 0 3 0;
#X connect 3 0 4 0;
#X connect 4 0 0 0;
