#N canvas 0 0 498 343 10;
#X obj 22 20 inlet;
#X obj 22 134 noteout \$1;
#X obj 22 107 makenote 64 250;
#X obj 22 50 spigot;
#X obj 109 20 inlet;
#X obj 94 54 bng 15 250 50 0 empty empty empty 17 7 0 10 -262144 -1
-1;
#X connect 0 0 3 1;
#X connect 0 0 3 0;
#X connect 0 0 5 0;
#X connect 2 0 1 0;
#X connect 2 1 1 1;
#X connect 3 0 2 0;
#X connect 4 0 2 2;
