#N canvas 219 162 1157 647 10;
#X obj 33 48 metronome;
#X obj 84 232 noteout;
#X floatatom 44 124 5 0 0 0 - - -;
#X obj 48 170 makenote 100 100;
#X floatatom 117 126 5 0 0 0 - - -;
#X obj 255 80 bng 15 250 50 0 empty empty empty 17 7 0 10 -262144 -1
-1;
#X msg 302 81 stop;
#X obj 274 142 metro;
#X obj 352 410 makenote;
#X floatatom 248 384 5 0 0 0 - - -;
#X msg 597 292 \; Cmajor 0 48 50 52 53 55 57 59 60 62 64 65 67 69 71
72 74 76 77 79 81 83 84 86 88 89 91 93 95 96;
#X obj 651 231 table Cmajor 27;
#X msg 362 238 set Cmajor;
#X obj 326 308 tabread;
#X floatatom 364 103 5 0 0 0 - - -;
#X obj 260 220 random 27;
#X obj 442 282 random 37;
#X obj 424 327 + 90;
#X msg 574 417 \; Times 0 500 1000 2000 1000 500;
#X obj 654 391 table Times 5;
#X obj 483 368 random 5;
#X obj 465 413 tabread;
#X msg 556 371 set Times;
#X obj 368 483 noteout 2;
#X obj 223 161 bng 15 250 50 0 empty empty empty 17 7 0 10 -262144
-1 -1;
#X connect 0 1 2 0;
#X connect 0 2 24 0;
#X connect 0 3 4 0;
#X connect 2 0 3 0;
#X connect 3 0 1 0;
#X connect 3 1 1 1;
#X connect 4 0 3 0;
#X connect 5 0 7 0;
#X connect 6 0 7 0;
#X connect 7 0 15 0;
#X connect 7 0 16 0;
#X connect 7 0 20 0;
#X connect 8 0 23 0;
#X connect 8 1 23 1;
#X connect 12 0 13 0;
#X connect 13 0 9 0;
#X connect 13 0 8 0;
#X connect 14 0 7 1;
#X connect 15 0 13 0;
#X connect 16 0 17 0;
#X connect 17 0 8 1;
#X connect 20 0 21 0;
#X connect 21 0 8 2;
#X connect 22 0 21 0;
#X connect 24 0 15 0;
#X connect 24 0 16 0;
#X connect 24 0 20 0;
