#N canvas 39 93 580 541 10;
#X floatatom 66 57 5 0 0 0 - - -;
#X text 103 58 BPM;
#X floatatom 308 53 5 0 0 0 - - -;
#X obj 304 73 expr (60/$f1) * 1000;
#X obj 192 57 tgl 15 0 empty empty empty 17 7 0 10 -262144 -1 -1 1
1;
#X floatatom 538 284 5 0 0 0 - - -;
#X obj 511 320 metro;
#X floatatom 476 282 5 0 0 0 - - -;
#X obj 449 318 metro;
#X floatatom 407 281 5 0 0 0 - - -;
#X obj 380 317 metro;
#X obj 538 253 / 8;
#X obj 476 251 / 4;
#X obj 407 250 / 2;
#X floatatom 339 282 5 0 0 0 - - -;
#X obj 312 318 metro;
#X obj 339 251 / 1;
#X obj 511 356 bng 15 250 50 0 empty empty empty 17 7 0 10 -262144
-1 -1;
#X obj 449 352 bng 15 250 50 0 empty empty empty 17 7 0 10 -262144
-1 -1;
#X obj 380 350 bng 15 250 50 0 empty empty empty 17 7 0 10 -262144
-1 -1;
#X obj 312 351 bng 15 250 50 0 empty empty empty 17 7 0 10 -262144
-1 -1;
#X text 448 435 16 note;
#X text 506 433 32 note;
#X text 348 51 Notes Per Measure Coming Soon;
#X text 305 430 1/4 note;
#X text 149 55 ON/OFF;
#X obj 312 407 outlet;
#X obj 380 407 outlet;
#X obj 449 407 outlet;
#X obj 511 407 outlet;
#X text 117 79 1/4;
#X text 373 432 8th note;
#X text 163 78 8th;
#X obj 66 3 inlet;
#X obj 252 318 metro;
#X obj 252 351 bng 15 250 50 0 empty empty empty 17 7 0 10 -262144
-1 -1;
#X obj 252 407 outlet;
#X obj 279 248 * 2;
#X floatatom 279 284 5 0 0 0 - - -;
#X text 245 430 1/2 note;
#X text 71 79 1/2;
#X obj 85 109 == 0;
#X obj 85 133 spigot;
#X obj 85 158 bng 15 250 50 0 empty empty empty 17 7 0 10 -262144 -1
-1;
#X obj 28 206 to_ableton;
#X obj 192 26 inlet;
#X obj 192 318 metro;
#X obj 192 351 bng 15 250 50 0 empty empty empty 17 7 0 10 -262144
-1 -1;
#X obj 192 407 outlet;
#X floatatom 219 284 5 0 0 0 - - -;
#X obj 219 248 * 4;
#X text 179 430 whole note;
#X text 35 79 1;
#X obj 218 387 outlet;
#X obj 279 387 outlet;
#X obj 339 387 outlet;
#X text 49 79 ms;
#X text 96 79 ms;
#X text 142 79 ms;
#X text 190 77 ms;
#X text 232 78 ms;
#X text 246 78 32;
#X text 212 78 16;
#X obj 80 34 f;
#X obj 126 33 bng 15 250 50 0 empty empty empty 17 7 0 10 -262144 -1
-1;
#X obj 407 385 outlet;
#X obj 476 384 outlet;
#X connect 0 0 3 0;
#X connect 0 0 44 4;
#X connect 3 0 16 0;
#X connect 3 0 13 0;
#X connect 3 0 12 0;
#X connect 3 0 11 0;
#X connect 3 0 37 0;
#X connect 3 0 50 0;
#X connect 4 0 6 0;
#X connect 4 0 8 0;
#X connect 4 0 10 0;
#X connect 4 0 15 0;
#X connect 4 0 34 0;
#X connect 4 0 41 0;
#X connect 4 0 46 0;
#X connect 4 0 64 0;
#X connect 5 0 6 1;
#X connect 6 0 17 0;
#X connect 7 0 8 1;
#X connect 7 0 66 0;
#X connect 8 0 18 0;
#X connect 9 0 10 1;
#X connect 9 0 65 0;
#X connect 10 0 19 0;
#X connect 11 0 5 0;
#X connect 12 0 7 0;
#X connect 13 0 9 0;
#X connect 14 0 15 1;
#X connect 14 0 55 0;
#X connect 15 0 20 0;
#X connect 16 0 14 0;
#X connect 17 0 29 0;
#X connect 18 0 28 0;
#X connect 19 0 27 0;
#X connect 20 0 26 0;
#X connect 33 0 0 0;
#X connect 33 0 63 1;
#X connect 34 0 35 0;
#X connect 35 0 36 0;
#X connect 37 0 38 0;
#X connect 38 0 34 1;
#X connect 38 0 54 0;
#X connect 41 0 42 1;
#X connect 41 0 42 0;
#X connect 42 0 43 0;
#X connect 43 0 44 6;
#X connect 45 0 4 0;
#X connect 46 0 47 0;
#X connect 47 0 48 0;
#X connect 49 0 46 1;
#X connect 49 0 53 0;
#X connect 50 0 49 0;
#X connect 63 0 0 0;
#X connect 64 0 63 0;
#X coords 0 -1 1 1 240 45 2 30 50;
