#N canvas 39 93 580 541 10;
#X floatatom 95 57 5 0 0 0 - - -;
#X text 132 58 BPM;
#X floatatom 308 53 5 0 0 0 - - -;
#X obj 304 73 expr (60/$f1) * 1000;
#X obj 217 57 tgl 15 0 empty empty empty 17 7 0 10 -262144 -1 -1 0
1;
#X floatatom 503 156 5 0 0 0 - - -;
#X obj 476 192 metro;
#X floatatom 441 154 5 0 0 0 - - -;
#X obj 414 190 metro;
#X floatatom 372 153 5 0 0 0 - - -;
#X obj 345 189 metro;
#X obj 503 125 / 8;
#X obj 441 123 / 4;
#X obj 372 122 / 2;
#X floatatom 304 154 5 0 0 0 - - -;
#X obj 277 190 metro;
#X obj 304 123 / 1;
#X obj 476 228 bng 15 250 50 0 empty empty empty 17 7 0 10 -262144
-1 -1;
#X obj 414 224 bng 15 250 50 0 empty empty empty 17 7 0 10 -262144
-1 -1;
#X obj 345 222 bng 15 250 50 0 empty empty empty 17 7 0 10 -262144
-1 -1;
#X obj 277 223 bng 15 250 50 0 empty empty empty 17 7 0 10 -262144
-1 -1;
#X text 413 307 16 note;
#X text 471 305 32 note;
#X text 348 51 Notes Per Measure Coming Soon;
#X text 270 302 1/4 note;
#X text 174 55 ON/OFF;
#X obj 277 279 outlet;
#X obj 345 279 outlet;
#X obj 414 279 outlet;
#X obj 476 279 outlet;
#X text 94 78 1/4;
#X text 338 304 8th note;
#X text 134 78 8th;
#X text 170 78 16th;
#X text 210 77 32nd;
#X obj 95 25 inlet;
#X obj 217 190 metro;
#X obj 217 223 bng 15 250 50 0 empty empty empty 17 7 0 10 -262144
-1 -1;
#X obj 217 279 outlet;
#X obj 244 120 * 2;
#X floatatom 244 156 5 0 0 0 - - -;
#X text 210 302 1/2 note;
#X text 57 79 1/2;
#X obj 114 109 == 0;
#X obj 114 133 spigot;
#X obj 114 158 bng 15 250 50 0 empty empty empty 17 7 0 10 -262144
-1 -1;
#X obj 57 206 to_ableton;
#X connect 0 0 3 0;
#X connect 0 0 46 4;
#X connect 3 0 16 0;
#X connect 3 0 13 0;
#X connect 3 0 12 0;
#X connect 3 0 11 0;
#X connect 3 0 39 0;
#X connect 4 0 6 0;
#X connect 4 0 8 0;
#X connect 4 0 10 0;
#X connect 4 0 15 0;
#X connect 4 0 36 0;
#X connect 4 0 43 0;
#X connect 5 0 6 1;
#X connect 6 0 17 0;
#X connect 7 0 8 1;
#X connect 8 0 18 0;
#X connect 9 0 10 1;
#X connect 10 0 19 0;
#X connect 11 0 5 0;
#X connect 12 0 7 0;
#X connect 13 0 9 0;
#X connect 14 0 15 1;
#X connect 15 0 20 0;
#X connect 16 0 14 0;
#X connect 17 0 29 0;
#X connect 18 0 28 0;
#X connect 19 0 27 0;
#X connect 20 0 26 0;
#X connect 35 0 0 0;
#X connect 36 0 37 0;
#X connect 37 0 38 0;
#X connect 39 0 40 0;
#X connect 40 0 36 1;
#X connect 43 0 44 1;
#X connect 43 0 44 0;
#X connect 44 0 45 0;
#X connect 45 0 46 6;
#X coords 0 -1 1 1 200 45 2 50 50;
