#N canvas 538 74 911 704 10;
#X obj 15 13 dumpOSC 9000;
#X obj 84 50 print;
#X obj 15 151 OSCroute /forPD;
#X floatatom 15 274 5 0 0 0 - - -;
#X floatatom 58 274 5 0 0 0 - - -;
#X obj 117 13 tgl 15 0 empty empty empty 17 7 0 10 -262144 -1 -1 0
1;
#X obj 84 30 spigot;
#X text 136 12 Print OSC;
#X obj 15 89 spigot;
#X obj 48 71 tgl 15 0 empty empty empty 17 7 0 10 -262144 -1 -1 0 1
;
#X text 68 70 Serial Data Toggle;
#X obj 528 138 unpack f f f;
#X floatatom 528 169 5 0 0 0 - - -;
#X obj 528 106 OSCroute /forState;
#X obj 15 201 OSCroute /plant1;
#X obj 127 201 OSCroute /plant2;
#X obj 237 201 OSCroute /plant3;
#X obj 350 201 OSCroute /plant4;
#X floatatom 127 274 5 0 0 0 - - -;
#X floatatom 170 274 5 0 0 0 - - -;
#X floatatom 237 274 5 0 0 0 - - -;
#X floatatom 280 274 5 0 0 0 - - -;
#X floatatom 350 274 5 0 0 0 - - -;
#X floatatom 393 274 5 0 0 0 - - -;
#X obj 15 243 unpack f f;
#X obj 127 243 unpack f f;
#X obj 237 243 unpack f f;
#X obj 350 242 unpack f f;
#X floatatom 571 169 5 0 0 0 - - -;
#X obj 3 509 spigot;
#X floatatom 3 532 5 0 0 0 - - -;
#X obj 36 486 tgl 15 0 empty empty empty 17 7 0 10 -262144 -1 -1 0
1;
#X obj 36 428 bng 15 250 50 0 empty empty empty 17 7 0 10 -262144 -1
-1;
#X obj 36 448 t b b;
#X obj 43 469 delay 50;
#X msg 3 579 499;
#X msg 3 553 set \$1;
#X obj 73 509 spigot;
#X floatatom 73 532 5 0 0 0 - - -;
#X obj 106 486 tgl 15 0 empty empty empty 17 7 0 10 -262144 -1 -1 0
1;
#X obj 106 429 bng 15 250 50 0 empty empty empty 17 7 0 10 -262144
-1 -1;
#X obj 106 448 t b b;
#X obj 113 469 delay 50;
#X msg 73 579 509;
#X msg 73 553 set \$1;
#X obj 143 509 spigot;
#X floatatom 143 532 5 0 0 0 - - -;
#X obj 176 486 tgl 15 0 empty empty empty 17 7 0 10 -262144 -1 -1 0
1;
#X obj 176 429 bng 15 250 50 0 empty empty empty 17 7 0 10 -262144
-1 -1;
#X obj 176 448 t b b;
#X obj 183 469 delay 50;
#X msg 143 579 500;
#X msg 143 553 set \$1;
#X obj 213 509 spigot;
#X floatatom 213 532 5 0 0 0 - - -;
#X obj 246 486 tgl 15 0 empty empty empty 17 7 0 10 -262144 -1 -1 0
1;
#X obj 246 429 bng 15 250 50 0 empty empty empty 17 7 0 10 -262144
-1 -1;
#X obj 246 448 t b b;
#X obj 253 469 delay 50;
#X msg 213 579 519;
#X msg 213 553 set \$1;
#X text 34 412 Pos 1;
#X text 104 413 Pos 2;
#X text 176 413 Pos 3;
#X text 245 413 Pos 4;
#X obj 270 562 loadbang;
#X obj 2 397 r plant1;
#X obj 58 299 send plant1;
#X obj 72 397 r plant1;
#X obj 143 397 r plant1;
#X obj 213 397 r plant1;
#X obj 3 605 s p1p1;
#X obj 213 605 s p1p4;
#X obj 143 605 s p1p3;
#X obj 73 605 s p1p2;
#X connect 0 0 6 0;
#X connect 0 0 8 0;
#X connect 2 0 14 0;
#X connect 2 0 15 0;
#X connect 2 0 16 0;
#X connect 2 0 17 0;
#X connect 4 0 67 0;
#X connect 5 0 6 1;
#X connect 6 0 1 0;
#X connect 8 0 2 0;
#X connect 8 0 13 0;
#X connect 9 0 8 1;
#X connect 11 0 12 0;
#X connect 11 1 28 0;
#X connect 13 0 11 0;
#X connect 14 0 24 0;
#X connect 15 0 25 0;
#X connect 16 0 26 0;
#X connect 17 0 27 0;
#X connect 24 0 3 0;
#X connect 24 1 4 0;
#X connect 25 0 18 0;
#X connect 25 1 19 0;
#X connect 26 0 20 0;
#X connect 26 1 21 0;
#X connect 27 0 22 0;
#X connect 27 1 23 0;
#X connect 29 0 30 0;
#X connect 30 0 36 0;
#X connect 31 0 29 1;
#X connect 32 0 33 0;
#X connect 33 0 31 0;
#X connect 33 1 34 0;
#X connect 34 0 31 0;
#X connect 35 0 71 0;
#X connect 36 0 35 0;
#X connect 37 0 38 0;
#X connect 38 0 44 0;
#X connect 39 0 37 1;
#X connect 40 0 41 0;
#X connect 41 0 39 0;
#X connect 41 1 42 0;
#X connect 42 0 39 0;
#X connect 43 0 74 0;
#X connect 44 0 43 0;
#X connect 45 0 46 0;
#X connect 46 0 52 0;
#X connect 47 0 45 1;
#X connect 48 0 49 0;
#X connect 49 0 47 0;
#X connect 49 1 50 0;
#X connect 50 0 47 0;
#X connect 51 0 73 0;
#X connect 52 0 51 0;
#X connect 53 0 54 0;
#X connect 54 0 60 0;
#X connect 55 0 53 1;
#X connect 56 0 57 0;
#X connect 57 0 55 0;
#X connect 57 1 58 0;
#X connect 58 0 55 0;
#X connect 59 0 72 0;
#X connect 60 0 59 0;
#X connect 65 0 35 0;
#X connect 65 0 43 0;
#X connect 65 0 51 0;
#X connect 65 0 59 0;
#X connect 66 0 29 0;
#X connect 68 0 37 0;
#X connect 69 0 45 0;
#X connect 70 0 53 0;
