#N canvas 623 245 450 300 10;
#X obj 15 13 dumpOSC 9000;
#X obj 78 58 print;
#X obj 15 82 OSCroute /forPD;
#X obj 15 114 unpack f f f;
#X floatatom 15 145 5 0 0 0 - - -;
#X floatatom 58 145 5 0 0 0 - - -;
#X floatatom 99 145 5 0 0 0 - - -;
#X obj 111 19 tgl 15 0 empty empty empty 17 7 0 10 -262144 -1 -1 0
1;
#X obj 78 37 spigot;
#X text 130 18 Print OSC;
#X obj 58 190 ctlout 1 3;
#X connect 0 0 2 0;
#X connect 0 0 8 0;
#X connect 2 0 3 0;
#X connect 3 0 4 0;
#X connect 3 1 5 0;
#X connect 3 2 6 0;
#X connect 5 0 10 0;
#X connect 7 0 8 1;
#X connect 8 0 1 0;
