#N canvas 766 191 335 181 10;
#X obj 20 85 expr sequence[$f1];
#X obj 20 135 makenote 64 250;
#X obj 20 162 noteout 1;
#X obj 20 22 inlet;
#X text 18 2 metronome in;
#X floatatom 42 110 5 0 0 0 - - -;
#X obj 20 42 counter;
#X obj 20 63 expr $f1 % 8;
#X connect 0 0 5 0;
#X connect 1 0 2 0;
#X connect 1 1 2 1;
#X connect 3 0 6 0;
#X connect 5 0 1 0;
#X connect 6 0 7 0;
#X connect 7 0 0 0;
