#N canvas 639 122 450 300 10;
#X obj 30 32 inlet;
#X text 28 12 metronome in;
#X floatatom 30 141 5 0 0 0 - - -;
#X obj 30 52 counter;
#X obj 30 166 outlet;
#X obj 30 73 expr $f1 % 4;
#X obj 30 116 expr bassline[$f1];
#X connect 0 0 3 0;
#X connect 2 0 4 0;
#X connect 3 0 5 0;
#X connect 5 0 6 0;
#X connect 6 0 2 0;
