#N canvas 981 361 335 181 10;
#X obj 20 106 expr sequence[$f1];
#X obj 20 22 inlet;
#X text 18 2 metronome in;
#X floatatom 20 131 5 0 0 0 - - -;
#X obj 20 42 counter;
#X obj 20 63 expr $f1 % 8;
#X obj 20 156 outlet;
#X obj 39 84 s seq_ind;
#X connect 0 0 3 0;
#X connect 1 0 4 0;
#X connect 3 0 6 0;
#X connect 4 0 5 0;
#X connect 5 0 0 0;
#X connect 5 0 7 0;
