#N canvas 938 386 590 366 10;
#X obj 23 139 spigot;
#X floatatom 23 162 5 0 0 0 - - -;
#X obj 56 116 tgl 15 0 empty empty empty 17 7 0 10 -262144 -1 -1 0
1;
#X obj 113 254 bng 15 250 50 0 empty empty empty 17 7 0 10 -262144
-1 -1;
#X obj 56 78 t b b;
#X obj 83 99 delay 50;
#X msg 53 222 558;
#X msg 23 183 set \$1;
#X obj 180 10 inlet;
#X obj 64 320 outlet;
#X obj 143 139 spigot;
#X floatatom 143 162 5 0 0 0 - - -;
#X obj 176 116 tgl 15 0 empty empty empty 17 7 0 10 -262144 -1 -1 0
1;
#X obj 167 254 bng 15 250 50 0 empty empty empty 17 7 0 10 -262144
-1 -1;
#X obj 176 78 t b b;
#X obj 203 99 delay 50;
#X msg 107 222 558;
#X msg 143 183 set \$1;
#X obj 118 320 outlet;
#X obj 263 139 spigot;
#X floatatom 263 162 5 0 0 0 - - -;
#X obj 296 116 tgl 15 0 empty empty empty 17 7 0 10 -262144 -1 -1 0
1;
#X obj 225 254 bng 15 250 50 0 empty empty empty 17 7 0 10 -262144
-1 -1;
#X obj 296 78 t b b;
#X obj 323 99 delay 50;
#X msg 165 222 558;
#X msg 263 183 set \$1;
#X obj 176 320 outlet;
#X obj 383 139 spigot;
#X floatatom 383 162 5 0 0 0 - - -;
#X obj 416 116 tgl 15 0 empty empty empty 17 7 0 10 -262144 -1 -1 0
1;
#X obj 279 254 bng 15 250 50 0 empty empty empty 17 7 0 10 -262144
-1 -1;
#X obj 416 78 t b b;
#X obj 443 99 delay 50;
#X msg 219 222 558;
#X msg 383 183 set \$1;
#X obj 230 320 outlet;
#X text 111 238 Pos 1;
#X text 165 238 Pos 2;
#X text 225 238 Pos 3;
#X text 278 238 Pos 4;
#X obj 320 189 loadbang;
#X floatatom 113 277 5 0 0 0 - - -;
#X floatatom 163 277 5 0 0 0 - - -;
#X floatatom 223 277 5 0 0 0 - - -;
#X floatatom 273 277 5 0 0 0 - - -;
#X connect 0 0 1 0;
#X connect 1 0 7 0;
#X connect 2 0 0 1;
#X connect 3 0 4 0;
#X connect 4 0 2 0;
#X connect 4 1 5 0;
#X connect 5 0 2 0;
#X connect 6 0 42 0;
#X connect 7 0 6 0;
#X connect 8 0 0 0;
#X connect 8 0 10 0;
#X connect 8 0 19 0;
#X connect 8 0 28 0;
#X connect 10 0 11 0;
#X connect 11 0 17 0;
#X connect 12 0 10 1;
#X connect 13 0 14 0;
#X connect 14 0 12 0;
#X connect 14 1 15 0;
#X connect 15 0 12 0;
#X connect 16 0 43 0;
#X connect 17 0 16 0;
#X connect 19 0 20 0;
#X connect 20 0 26 0;
#X connect 21 0 19 1;
#X connect 22 0 23 0;
#X connect 23 0 21 0;
#X connect 23 1 24 0;
#X connect 24 0 21 0;
#X connect 25 0 44 0;
#X connect 26 0 25 0;
#X connect 28 0 29 0;
#X connect 29 0 35 0;
#X connect 30 0 28 1;
#X connect 31 0 32 0;
#X connect 32 0 30 0;
#X connect 32 1 33 0;
#X connect 33 0 30 0;
#X connect 34 0 45 0;
#X connect 35 0 34 0;
#X connect 41 0 6 0;
#X connect 41 0 16 0;
#X connect 41 0 25 0;
#X connect 41 0 34 0;
#X connect 42 0 9 0;
#X connect 43 0 18 0;
#X connect 44 0 27 0;
#X connect 45 0 36 0;
#X coords 0 -1 1 1 220 60 2 100 240;
