#N canvas 30 106 1635 890 10;
#X obj 16 76 soundfiler;
#X obj 16 27 openpanel;
#X obj 16 5 bng 15 250 50 0 empty empty empty 17 7 0 10 -262144 -1
-1;
#X obj 16 100 / 44.1;
#X obj 16 125 s totalduration;
#X obj 16 145 s totallength;
#X msg 16 165 \; vispos range 0 \$1;
#X msg 16 53 read -resize \$1 sample1;
#N canvas 0 22 450 278 (subpatch) 0;
#X array sample1 164563 float 2;
#X coords 0 1 164563 -1 200 140 1;
#X restore 183 13 graph;
#X obj 48 631 bng 15 250 50 0 empty empty test 17 7 0 10 -262144 -1
-1;
#X obj 48 655 tabplay~ sample1;
#X obj 17 284 soundfiler;
#X obj 17 235 openpanel;
#X obj 17 213 bng 15 250 50 0 empty empty empty 17 7 0 10 -262144 -1
-1;
#X obj 17 308 / 44.1;
#X obj 17 333 s totalduration;
#X obj 17 353 s totallength;
#X msg 17 373 \; vispos range 0 \$1;
#N canvas 0 22 450 278 (subpatch) 0;
#X array sample5 245333 float 2;
#X coords 0 1 245333 -1 200 140 1 0 0;
#X restore 184 221 graph;
#X obj 410 74 soundfiler;
#X obj 410 25 openpanel;
#X obj 410 3 bng 15 250 50 0 empty empty empty 17 7 0 10 -262144 -1
-1;
#X obj 410 98 / 44.1;
#X obj 410 123 s totalduration;
#X obj 410 143 s totallength;
#X msg 410 163 \; vispos range 0 \$1;
#N canvas 0 22 450 278 (subpatch) 0;
#X array sample2 175233 float 2;
#X coords 0 1 175233 -1 200 140 1 0 0;
#X restore 573 24 graph;
#X obj 412 286 soundfiler;
#X obj 412 237 openpanel;
#X obj 412 215 bng 15 250 50 0 empty empty empty 17 7 0 10 -262144
-1 -1;
#X obj 412 310 / 44.1;
#X obj 412 335 s totalduration;
#X obj 412 355 s totallength;
#X msg 412 375 \; vispos range 0 \$1;
#N canvas 0 22 450 278 (subpatch) 0;
#X array sample6 684537 float 2;
#X coords 0 1 684537 -1 200 140 1 0 0;
#X restore 580 222 graph;
#X obj 815 65 soundfiler;
#X obj 815 16 openpanel;
#X obj 815 -6 bng 15 250 50 0 empty empty empty 17 7 0 10 -262144 -1
-1;
#X obj 815 89 / 44.1;
#X obj 815 114 s totalduration;
#X obj 815 134 s totallength;
#X msg 815 154 \; vispos range 0 \$1;
#N canvas 0 22 450 278 (subpatch) 0;
#X array sample3 170256 float 2;
#X coords 0 1 170256 -1 200 140 1 0 0;
#X restore 982 2 graph;
#X obj 816 273 soundfiler;
#X obj 816 224 openpanel;
#X obj 816 202 bng 15 250 50 0 empty empty empty 17 7 0 10 -262144
-1 -1;
#X obj 816 297 / 44.1;
#X obj 816 322 s totalduration;
#X obj 816 342 s totallength;
#X msg 816 362 \; vispos range 0 \$1;
#N canvas 0 22 450 278 (subpatch) 0;
#X array sample7 682101 float 2;
#X coords 0 1 682101 -1 200 140 1 0 0;
#X restore 983 210 graph;
#X obj 1209 63 soundfiler;
#X obj 1209 14 openpanel;
#X obj 1209 -8 bng 15 250 50 0 empty empty empty 17 7 0 10 -262144
-1 -1;
#X obj 1209 87 / 44.1;
#X obj 1209 112 s totalduration;
#X obj 1209 132 s totallength;
#X msg 1209 152 \; vispos range 0 \$1;
#N canvas 0 22 450 278 (subpatch) 0;
#X array sample4 324959 float 2;
#X coords 0 1 324959 -1 200 140 1 0 0;
#X restore 1376 0 graph;
#X obj 1211 275 soundfiler;
#X obj 1211 226 openpanel;
#X obj 1211 204 bng 15 250 50 0 empty empty empty 17 7 0 10 -262144
-1 -1;
#X obj 1211 299 / 44.1;
#X obj 1211 324 s totalduration;
#X obj 1211 344 s totallength;
#X msg 1211 364 \; vispos range 0 \$1;
#N canvas 0 22 450 278 (subpatch) 0;
#X array sample8 682921 float 2;
#X coords 0 1 682921 -1 200 140 1 0 0;
#X restore 1378 212 graph;
#X msg 410 51 read -resize \$1 sample2;
#X msg 815 42 read -resize \$1 sample3;
#X msg 1209 40 read -resize \$1 sample4;
#X msg 17 261 read -resize \$1 sample5;
#X msg 412 263 read -resize \$1 sample6;
#X msg 816 250 read -resize \$1 sample7;
#X msg 1211 252 read -resize \$1 sample8;
#X obj 180 620 bng 15 250 50 0 empty empty test 17 7 0 10 -262144 -1
-1;
#X obj 309 624 bng 15 250 50 0 empty empty test 17 7 0 10 -262144 -1
-1;
#X obj 455 623 bng 15 250 50 0 empty empty test 17 7 0 10 -262144 -1
-1;
#X obj 602 622 bng 15 250 50 0 empty empty test 17 7 0 10 -262144 -1
-1;
#X obj 734 611 bng 15 250 50 0 empty empty test 17 7 0 10 -262144 -1
-1;
#X obj 863 615 bng 15 250 50 0 empty empty test 17 7 0 10 -262144 -1
-1;
#X obj 1009 614 bng 15 250 50 0 empty empty test 17 7 0 10 -262144
-1 -1;
#X obj 180 644 tabplay~ sample2;
#X obj 309 648 tabplay~ sample3;
#X obj 455 647 tabplay~ sample4;
#X obj 602 646 tabplay~ sample5;
#X obj 734 635 tabplay~ sample6;
#X obj 863 639 tabplay~ sample7;
#X obj 1009 638 tabplay~ sample8;
#X obj 500 524 sel 0 1 2 3 4 5 6 7;
#X msg 35 447 stop;
#X obj 39 485 s stop;
#X obj 780 597 r stop;
#X obj 416 593 r stop;
#X obj 542 437 bng 15 250 50 0 empty empty empty 17 7 0 10 -262144
-1 -1;
#X obj 537 470 random 8;
#X obj 566 402 r end;
#X obj 646 806 s end;
#X obj 436 803 freeverb~;
#X obj 438 832 dac~;
#X msg 864 480 wet \$1;
#X obj 866 410 hsl 128 15 0 1 0 0 empty empty empty -2 -8 0 10 -262144
-1 -1 7000 1;
#X obj 1017 456 hsl 128 15 0 1 0 0 empty empty empty -2 -8 0 10 -262144
-1 -1 5700 1;
#X obj 1164 457 hsl 128 15 0 1 0 0 empty empty empty -2 -8 0 10 -262144
-1 -1 3500 1;
#X msg 1161 482 roomsize \$1;
#X msg 1014 481 dry \$1;
#X obj 886 439 * -1;
#X obj 937 439 + 1;
#X connect 0 0 3 0;
#X connect 0 0 5 0;
#X connect 0 0 6 0;
#X connect 1 0 7 0;
#X connect 2 0 1 0;
#X connect 3 0 4 0;
#X connect 7 0 0 0;
#X connect 9 0 10 0;
#X connect 10 0 97 0;
#X connect 10 0 97 1;
#X connect 10 1 96 0;
#X connect 11 0 14 0;
#X connect 11 0 16 0;
#X connect 11 0 17 0;
#X connect 12 0 70 0;
#X connect 13 0 12 0;
#X connect 14 0 15 0;
#X connect 19 0 22 0;
#X connect 19 0 24 0;
#X connect 19 0 25 0;
#X connect 20 0 67 0;
#X connect 21 0 20 0;
#X connect 22 0 23 0;
#X connect 27 0 30 0;
#X connect 27 0 32 0;
#X connect 27 0 33 0;
#X connect 28 0 71 0;
#X connect 29 0 28 0;
#X connect 30 0 31 0;
#X connect 35 0 38 0;
#X connect 35 0 40 0;
#X connect 35 0 41 0;
#X connect 36 0 68 0;
#X connect 37 0 36 0;
#X connect 38 0 39 0;
#X connect 43 0 46 0;
#X connect 43 0 48 0;
#X connect 43 0 49 0;
#X connect 44 0 72 0;
#X connect 45 0 44 0;
#X connect 46 0 47 0;
#X connect 51 0 54 0;
#X connect 51 0 56 0;
#X connect 51 0 57 0;
#X connect 52 0 69 0;
#X connect 53 0 52 0;
#X connect 54 0 55 0;
#X connect 59 0 62 0;
#X connect 59 0 64 0;
#X connect 59 0 65 0;
#X connect 60 0 73 0;
#X connect 61 0 60 0;
#X connect 62 0 63 0;
#X connect 67 0 19 0;
#X connect 68 0 35 0;
#X connect 69 0 51 0;
#X connect 70 0 11 0;
#X connect 71 0 27 0;
#X connect 72 0 43 0;
#X connect 73 0 59 0;
#X connect 74 0 81 0;
#X connect 75 0 82 0;
#X connect 76 0 83 0;
#X connect 77 0 84 0;
#X connect 78 0 85 0;
#X connect 79 0 86 0;
#X connect 80 0 87 0;
#X connect 81 0 97 0;
#X connect 81 0 97 1;
#X connect 81 1 96 0;
#X connect 82 0 97 0;
#X connect 82 0 97 1;
#X connect 82 1 96 0;
#X connect 83 0 97 0;
#X connect 83 0 97 1;
#X connect 83 1 96 0;
#X connect 84 0 97 0;
#X connect 84 0 97 1;
#X connect 84 1 96 0;
#X connect 85 0 97 0;
#X connect 85 0 97 1;
#X connect 85 1 96 0;
#X connect 86 0 97 0;
#X connect 86 0 97 1;
#X connect 86 1 96 0;
#X connect 87 0 97 0;
#X connect 87 0 97 1;
#X connect 87 1 96 0;
#X connect 88 0 9 0;
#X connect 88 1 74 0;
#X connect 88 2 75 0;
#X connect 88 3 76 0;
#X connect 88 4 77 0;
#X connect 88 5 78 0;
#X connect 88 6 79 0;
#X connect 88 7 80 0;
#X connect 89 0 90 0;
#X connect 91 0 85 0;
#X connect 91 0 86 0;
#X connect 91 0 87 0;
#X connect 91 0 84 0;
#X connect 92 0 83 0;
#X connect 92 0 82 0;
#X connect 92 0 81 0;
#X connect 92 0 10 0;
#X connect 93 0 94 0;
#X connect 94 0 88 0;
#X connect 95 0 93 0;
#X connect 97 0 98 0;
#X connect 97 1 98 1;
#X connect 99 0 97 0;
#X connect 100 0 99 0;
#X connect 100 0 105 0;
#X connect 101 0 104 0;
#X connect 102 0 103 0;
#X connect 103 0 97 0;
#X connect 104 0 97 0;
#X connect 105 0 106 0;
#X connect 106 0 101 0;
