#N canvas 0 50 450 300 10;
#X obj 117 88 >=;
#X obj 92 38 inlet;
#X obj 235 37 inlet;
#X text 97 19 plant input;
#X text 233 14 state cutoff;
#X obj 123 133 sel 1;
#X obj 137 231 outlet;
#X floatatom 236 87 5 0 0 0 - - -, f 5;
#X floatatom 38 100 5 0 0 0 - - -, f 5;
#X obj 115 182 spigot;
#X msg 208 173 0;
#X msg 210 199 1;
#X obj 111 212 bng 15 250 50 0 empty empty empty 17 7 0 10 -262144
-1 -1;
#X connect 0 0 5 0;
#X connect 1 0 0 0;
#X connect 1 0 8 0;
#X connect 2 0 0 1;
#X connect 2 0 7 0;
#X connect 5 0 9 0;
#X connect 5 1 11 0;
#X connect 9 0 10 0;
#X connect 9 0 12 0;
#X connect 10 0 9 1;
#X connect 11 0 9 1;
#X connect 12 0 6 0;
