#N canvas 0 50 450 300 10;
#X obj 55 30 inlet;
#X obj 144 32 inlet;
#X obj 92 90 >=;
#X text 55 12 touch input;
#X text 147 10 base state;
#X obj 242 31 inlet;
#X text 241 9 dest. state;
#X obj 159 236 spigot;
#X obj 183 83 -;
#X obj 245 81 -;
#X floatatom 244 117 5 0 0 0 - - -, f 5;
#X text 283 99 ramp range;
#X floatatom 181 121 5 0 0 0 - - -, f 5;
#X obj 226 161 /;
#X obj 226 189 * 127;
#X obj 159 265 outlet;
#X text 273 190 max cc value;
#X connect 0 0 2 0;
#X connect 0 0 8 0;
#X connect 1 0 2 1;
#X connect 1 0 8 1;
#X connect 1 0 9 0;
#X connect 2 0 7 1;
#X connect 5 0 9 1;
#X connect 7 0 15 0;
#X connect 8 0 12 0;
#X connect 9 0 10 0;
#X connect 10 0 13 1;
#X connect 12 0 13 0;
#X connect 13 0 14 0;
#X connect 14 0 7 0;
