#N canvas 497 330 1396 509 10;
#X obj 95 106 inlet;
#X obj 95 130 vsl 15 128 0 300 0 0 empty empty empty 0 -9 0 10 -262144
-1 -1 0 1;
#X obj 95 338 ctlout 1 1;
#X obj 95 268 expr $f1/100*120;
#X obj 225 130 vsl 15 128 0 300 0 0 empty empty empty 0 -9 0 10 -262144
-1 -1 0 1;
#X obj 225 268 expr $f1/100*120;
#X obj 225 338 ctlout 1 2;
#X obj 475 130 vsl 15 128 0 300 0 0 empty empty empty 0 -9 0 10 -262144
-1 -1 0 1;
#X obj 475 268 expr $f1/100*120;
#X obj 345 130 vsl 15 128 0 300 0 0 empty empty empty 0 -9 0 10 -262144
-1 -1 0 1;
#X obj 345 268 expr $f1/100*120;
#X obj 345 338 ctlout 1 3;
#X obj 475 338 ctlout 1 4;
#X obj 225 105 inlet;
#X obj 345 106 inlet;
#X obj 475 105 inlet;
#X text 96 88 vol1;
#X text 224 88 vol2;
#X text 344 88 vol3;
#X text 473 88 vol4;
#X obj 752 100 inlet;
#X text 749 81 metro;
#X floatatom 796 245 5 0 0 0 - - -, f 5;
#X floatatom 796 288 5 0 0 0 - - -, f 5;
#X obj 796 309 ctlout 10 1;
#X text 945 82 select drum loop;
#X floatatom 797 197 5 0 0 0 - - -, f 5;
#X msg 752 148 20;
#X obj 752 124 moses 20;
#X obj 797 217 - 20;
#X msg 848 172 175;
#X obj 797 148 moses 175;
#X obj 796 266 expr $f1/155*127;
#X obj 951 103 inlet;
#X floatatom 951 138 5 0 0 0 - - -, f 5;
#X obj 951 205 ctlout 1 5;
#X obj 951 161 bng 15 250 50 0 empty empty empty 17 7 0 10 -262144
-1 -1;
#X msg 951 183 127;
#X obj 1001 102 bng 15 250 50 0 empty empty empty 17 7 0 10 -262144
-1 -1;
#X msg 1063 100 1;
#X msg 1096 100 2;
#X msg 1131 100 3;
#X msg 1164 100 4;
#X text 1201 84 stop ableton playback;
#X obj 1212 125 bng 15 250 50 0 empty empty empty 17 7 0 10 -262144
-1 -1;
#X msg 1212 145 127;
#X obj 1212 104 inlet;
#X obj 1212 167 ctlout 1 6;
#X msg 1029 99 5;
#X floatatom 110 300 5 0 0 0 - - -, f 5;
#X floatatom 265 301 5 0 0 0 - - -, f 5;
#X floatatom 377 304 5 0 0 0 - - -, f 5;
#X floatatom 505 303 5 0 0 0 - - -, f 5;
#X obj 612 129 vsl 15 128 0 300 0 0 empty empty empty 0 -9 0 10 -262144
-1 -1 0 1;
#X obj 612 267 expr $f1/100*120;
#X obj 612 337 ctlout 1 4;
#X obj 612 104 inlet;
#X floatatom 642 302 5 0 0 0 - - -, f 5;
#X text 610 87 vol5;
#X floatatom 133 136 5 0 0 0 - - -, f 5;
#X floatatom 255 135 5 0 0 0 - - -, f 5;
#X floatatom 385 137 5 0 0 0 - - -, f 5;
#X floatatom 514 135 5 0 0 0 - - -, f 5;
#X connect 0 0 1 0;
#X connect 0 0 59 0;
#X connect 1 0 3 0;
#X connect 3 0 2 0;
#X connect 3 0 49 0;
#X connect 4 0 5 0;
#X connect 5 0 6 0;
#X connect 5 0 50 0;
#X connect 7 0 8 0;
#X connect 8 0 12 0;
#X connect 8 0 52 0;
#X connect 9 0 10 0;
#X connect 10 0 11 0;
#X connect 10 0 51 0;
#X connect 13 0 4 0;
#X connect 13 0 60 0;
#X connect 14 0 9 0;
#X connect 14 0 61 0;
#X connect 15 0 7 0;
#X connect 15 0 62 0;
#X connect 20 0 28 0;
#X connect 22 0 32 0;
#X connect 23 0 24 0;
#X connect 26 0 29 0;
#X connect 27 0 26 0;
#X connect 28 0 27 0;
#X connect 28 1 31 0;
#X connect 29 0 22 0;
#X connect 30 0 26 0;
#X connect 31 0 26 0;
#X connect 31 1 30 0;
#X connect 32 0 23 0;
#X connect 33 0 34 0;
#X connect 34 0 35 1;
#X connect 34 0 36 0;
#X connect 36 0 37 0;
#X connect 37 0 35 0;
#X connect 38 0 34 0;
#X connect 39 0 34 0;
#X connect 40 0 34 0;
#X connect 41 0 34 0;
#X connect 42 0 34 0;
#X connect 44 0 45 0;
#X connect 45 0 47 0;
#X connect 46 0 44 0;
#X connect 48 0 34 0;
#X connect 53 0 54 0;
#X connect 54 0 55 0;
#X connect 54 0 57 0;
#X connect 56 0 53 0;
