#N canvas 13 362 798 333 10;
#X obj -17 -14 inlet;
#X obj -17 8 vsl 15 128 0 300 0 0 empty empty empty 0 -9 0 10 -262144
-1 -1 0 1;
#X obj -17 168 ctlout 1 1;
#X obj -17 146 expr $f1/100*120;
#X obj 113 8 vsl 15 128 0 300 0 0 empty empty empty 0 -9 0 10 -262144
-1 -1 0 1;
#X obj 113 146 expr $f1/100*120;
#X obj 113 168 ctlout 1 2;
#X obj 363 8 vsl 15 128 0 300 0 0 empty empty empty 0 -9 0 10 -262144
-1 -1 0 1;
#X obj 363 146 expr $f1/100*120;
#X obj 233 8 vsl 15 128 0 300 0 0 empty empty empty 0 -9 0 10 -262144
-1 -1 0 1;
#X obj 233 146 expr $f1/100*120;
#X obj 233 168 ctlout 1 3;
#X obj 363 168 ctlout 1 4;
#X obj 106 -17 inlet;
#X obj 233 -16 inlet;
#X obj 359 -20 inlet;
#X text -12 -41 vol1;
#X text 105 -42 vol2;
#X text 232 -45 vol3;
#X text 354 -44 vol4;
#X obj 516 -22 inlet;
#X text 513 -41 metro;
#X floatatom 590 113 5 0 0 0 - - -;
#X msg 645 77 100;
#X obj 593 41 moses 100;
#X msg 515 50 20;
#X obj 515 18 moses 20;
#X obj 590 133 - 20;
#X floatatom 590 161 5 0 0 0 - - -;
#X floatatom 590 204 5 0 0 0 - - -;
#X obj 590 181 expr $f1/80*999;
#X obj 590 225 ctlout 10 1;
#X connect 0 0 1 0;
#X connect 1 0 3 0;
#X connect 3 0 2 0;
#X connect 4 0 5 0;
#X connect 5 0 6 0;
#X connect 7 0 8 0;
#X connect 8 0 12 0;
#X connect 9 0 10 0;
#X connect 10 0 11 0;
#X connect 13 0 4 0;
#X connect 14 0 9 0;
#X connect 15 0 7 0;
#X connect 20 0 26 0;
#X connect 22 0 27 0;
#X connect 23 0 22 0;
#X connect 24 0 22 0;
#X connect 24 1 23 0;
#X connect 25 0 22 0;
#X connect 26 0 25 0;
#X connect 26 1 24 0;
#X connect 27 0 28 0;
#X connect 28 0 30 0;
#X connect 29 0 31 0;
#X connect 30 0 29 0;
