#N canvas 13 37 449 376 10;
#X obj 86 32 tgl 15 0 empty empty empty 17 7 0 10 -262144 -1 -1 0 1
;
#X msg 84 273 64;
#X msg 118 273 69;
#X obj 86 185 metro 500;
#X obj 86 206 i;
#X obj 125 206 + 1;
#X obj 84 249 sel 0 1;
#X obj 86 53 == 0;
#X obj 211 158 i;
#X obj 250 158 + 1;
#X msg 208 238 72;
#X msg 217 263 74;
#X msg 231 284 77;
#X msg 242 306 74;
#X msg 252 324 76;
#X msg 292 325 79;
#X msg 323 326 84;
#X obj 208 58 metro 120;
#X obj 339 231 bng 15 250 50 0 empty empty empty 17 7 0 10 -262144
-1 -1;
#X msg 341 201 0;
#X obj 341 254 whole_sequence;
#X obj 163 87 spigot;
#X floatatom 168 63 5 0 0 0 - - -;
#X obj 84 297 instrument_out 5;
#X obj 201 353 instrument_out 5;
#X obj 211 179 % 17;
#X obj 209 201 sel 0 1 2 3 4 5 7 16;
#X msg 250 136 0;
#X obj 219 97 bng 15 250 50 0 empty empty empty 17 7 0 10 -262144 -1
-1;
#X obj 86 227 % 24;
#X obj 18 157 tgl 28 0 empty empty Global_On/Off -8 -5 0 10 -261234
-1 -1 1 1;
#X connect 0 0 7 0;
#X connect 0 0 17 0;
#X connect 1 0 23 0;
#X connect 2 0 23 0;
#X connect 3 0 4 0;
#X connect 4 0 5 0;
#X connect 4 0 29 0;
#X connect 5 0 4 1;
#X connect 6 0 1 0;
#X connect 6 1 2 0;
#X connect 7 0 3 0;
#X connect 7 0 22 0;
#X connect 7 0 21 0;
#X connect 8 0 9 0;
#X connect 8 0 25 0;
#X connect 9 0 8 1;
#X connect 10 0 24 0;
#X connect 11 0 24 0;
#X connect 12 0 24 0;
#X connect 13 0 24 0;
#X connect 14 0 24 0;
#X connect 15 0 24 0;
#X connect 16 0 24 0;
#X connect 17 0 8 0;
#X connect 17 0 28 0;
#X connect 18 0 20 0;
#X connect 19 0 17 0;
#X connect 19 0 27 0;
#X connect 21 0 18 0;
#X connect 22 0 21 1;
#X connect 25 0 26 0;
#X connect 26 0 10 0;
#X connect 26 1 11 0;
#X connect 26 2 12 0;
#X connect 26 3 13 0;
#X connect 26 4 14 0;
#X connect 26 5 15 0;
#X connect 26 6 16 0;
#X connect 26 7 18 0;
#X connect 26 7 19 0;
#X connect 27 0 8 1;
#X connect 29 0 6 0;
#X connect 30 0 3 0;
