#N canvas 31 133 415 405 12;
#X obj 59 9 tgl 15 0 empty empty empty 17 7 0 10 -262144 -1 -1 0 1
;
#X obj 72 9 tgl 15 0 empty empty empty 17 7 0 10 -262144 -1 -1 0 1
;
#X obj 85 9 tgl 15 0 empty empty empty 17 7 0 10 -262144 -1 -1 0 1
;
#X obj 98 9 tgl 15 0 empty empty empty 17 7 0 10 -262144 -1 -1 0 1
;
#X obj 242 155 tgl 15 0 empty empty empty 17 7 0 10 -262144 -1 -1 0
1;
#X obj 59 30 bondo 4;
#X obj 50 240 adjust_volume;
#X obj 59 53 tgl 15 0 empty empty empty 17 7 0 10 -262144 -1 -1 0 1
;
#X obj 74 53 tgl 15 0 empty empty empty 17 7 0 10 -262144 -1 -1 0 1
;
#X obj 89 53 tgl 15 0 empty empty empty 17 7 0 10 -262144 -1 -1 0 1
;
#X obj 104 53 tgl 15 0 empty empty empty 17 7 0 10 -262144 -1 -1 0
1;
#X obj 59 75 expr $f1 \; $f2 \; $f3 \; $f4 \; if($f1+$f2+$f3+$f4 ==
0 \, 1 \, 0) \;;
#X obj 36 218 adjust_volume;
#X obj 22 195 adjust_volume;
#X obj 64 262 adjust_volume;
#X obj 22 9 inlet;
#X obj 22 348 to_ableton;
#X obj 65 320 adjust_volume;
#X msg 108 293 1;
#X connect 0 0 5 0;
#X connect 1 0 5 1;
#X connect 2 0 5 2;
#X connect 3 0 5 3;
#X connect 5 0 7 0;
#X connect 5 0 11 0;
#X connect 5 1 8 0;
#X connect 5 1 11 1;
#X connect 5 2 9 0;
#X connect 5 2 11 2;
#X connect 5 3 10 0;
#X connect 5 3 11 3;
#X connect 6 0 16 2;
#X connect 11 0 13 1;
#X connect 11 1 12 1;
#X connect 11 2 6 1;
#X connect 11 3 14 1;
#X connect 11 4 4 0;
#X connect 11 4 6 2;
#X connect 11 4 12 2;
#X connect 11 4 13 2;
#X connect 11 4 14 2;
#X connect 12 0 16 1;
#X connect 13 0 16 0;
#X connect 14 0 16 3;
#X connect 15 0 13 0;
#X connect 15 0 12 0;
#X connect 15 0 6 0;
#X connect 15 0 14 0;
#X connect 15 0 17 0;
#X connect 15 0 18 0;
#X connect 17 0 16 4;
#X connect 18 0 17 1;
