#N canvas 88 88 581 518 10;
#X obj 29 42 initial_note;
#X obj 29 99 choose_scale;
#X obj 29 72 bng 15 250 50 0 empty empty empty 17 7 0 10 -262144 -1
-1;
#X obj 117 98 create_sequence;
#X obj 29 11 bng 15 250 50 0 empty empty empty 17 7 0 10 -262144 -1
-1;
#X floatatom 204 77 5 0 0 0 - - -;
#X obj 257 84 play_sequence;
#X obj 258 11 tgl 15 0 empty empty empty 17 7 0 10 -262144 -1 -1 0
1;
#X obj 257 28 metro 250;
#X obj 326 45 bng 15 250 50 0 empty empty empty 17 7 0 10 -262144 -1
-1;
#X obj 257 109 instrument_out 1;
#X obj 265 135 instrument_out 2;
#X obj 274 161 instrument_out 3;
#X obj 286 187 instrument_out 4;
#X obj 268 63 volume_controller;
#X connect 0 0 2 0;
#X connect 0 0 5 0;
#X connect 2 0 1 0;
#X connect 2 0 3 0;
#X connect 4 0 0 0;
#X connect 5 0 3 1;
#X connect 6 0 10 0;
#X connect 6 0 11 0;
#X connect 6 0 12 0;
#X connect 6 0 13 0;
#X connect 7 0 8 0;
#X connect 8 0 6 0;
#X connect 8 0 9 0;
#X connect 8 0 14 0;
