#N canvas 358 241 1130 903 10;
#X obj -20 -19 initial_note;
#X obj -20 -98 bng 15 250 50 0 empty empty empty 17 7 0 10 -262144
-1 -1;
#X obj 365 -144 vsl 15 128 0 127 0 0 empty empty empty 0 -9 0 10 -262144
-1 -1 0 1;
#X floatatom 62 -18 5 0 0 0 - - -, f 5;
#X obj 28 11 s mode;
#X obj 78 10 s old_mode;
#X obj 367 -10 expr $f1/127*155;
#X obj 367 10 + 20;
#X obj 790 -145 nbx 5 28 -1e+037 1e+037 0 0 empty root_note Next_Root
0 -8 0 15 -4032 -1 -1 0 256;
#X obj 600 -45 inlet;
#X obj 600 -24 bng 15 250 50 0 empty empty empty 17 7 0 10 -262144
-1 -1;
#X obj 367 30 metronome;
#X obj 46 432 create_sequence2;
#X obj 276 491 play_sequence2;
#X obj 276 513 chord_out 2;
#X obj 45 604 create_sequence;
#X obj 871 505 instrument_out 1;
#X obj 871 481 play_sequence;
#X obj 355 512 f;
#X floatatom 383 512 5 0 0 0 - - -, f 5;
#X obj 370 494 * 0.95;
#X obj 964 481 f;
#X floatatom 992 481 5 0 0 0 - - -, f 5;
#X obj 979 463 * 0.95;
#X obj 176 73 i;
#X obj 208 73 + 1;
#X obj 135 133 bng 15 250 50 0 empty empty empty 17 7 0 10 -262144
-1 -1;
#X obj 871 459 spigot;
#X obj 904 440 tgl 15 0 empty empty empty 17 7 0 10 -262144 -1 -1 0
1;
#X obj 864 422 bng 15 250 50 0 empty empty empty 17 7 0 10 -262144
-1 -1;
#X obj 26 561 bng 15 250 50 0 empty empty empty 17 7 0 10 -262144 -1
-1;
#X obj 73 758 bng 15 250 50 0 empty empty empty 17 7 0 10 -262144 -1
-1;
#X obj 606 11 s seq_init;
#X obj 297 -150 r seq_init;
#X obj 234 771 bng 15 250 50 0 empty empty empty 17 7 0 10 -262144
-1 -1;
#X obj 256 789 create_bassline;
#X obj 640 507 instrument_out 3;
#X obj 733 484 f;
#X floatatom 761 484 5 0 0 0 - - -, f 5;
#X obj 748 466 * 0.95;
#X obj 640 460 spigot;
#X obj 673 441 tgl 15 0 empty empty empty 17 7 0 10 -262144 -1 -1 0
1;
#X obj 633 423 bng 15 250 50 0 empty empty empty 17 7 0 10 -262144
-1 -1;
#X obj 640 484 play_sequence3;
#X obj 453 489 play_bassline;
#X obj 453 510 instrument_out 4;
#X obj 546 489 f;
#X floatatom 574 489 5 0 0 0 - - -, f 5;
#X obj 561 471 * 0.95;
#X obj 453 465 spigot;
#X obj 486 446 tgl 15 0 empty empty empty 17 7 0 10 -262144 -1 -1 0
1;
#X obj 456 428 bng 15 250 50 0 empty empty empty 17 7 0 10 -262144
-1 -1;
#X obj 600 -4 tgl 15 0 empty empty empty 17 7 0 10 -262144 -1 -1 0
1;
#X obj 298 -115 sel 1;
#X obj 854 241 r seq_init;
#X obj 854 261 sel 0;
#X msg 854 283 0;
#X obj 22 401 bng 15 250 50 0 empty empty empty 17 7 0 10 -262144 -1
-1;
#X floatatom 227 96 5 0 0 0 - - -, f 5;
#X obj 155 148 choose_scale;
#X obj 518 -145 nbx 5 28 -1e+037 1e+037 0 0 empty mode Current_Mode
0 -8 0 15 -203904 -1 -1 0 256;
#X symbolatom 518 -117 30 0 0 0 - mode_name -, f 30;
#X obj 191 116 sel 0 4 8 12 15;
#X msg 176 51 0;
#X obj 668 -145 nbx 5 28 -1e+037 1e+037 0 0 empty curr_root Current_Root
0 -8 0 15 -204800 -1 -1 0 256;
#X obj 410 -145 nbx 5 28 -1e+037 1e+037 0 0 empty old_mode Last_Mode
0 -8 0 15 -232576 -1 -1 0 256;
#X obj 790 -90 nbx 5 14 -1e+037 1e+037 0 0 empty mode_diff Mode_Diff
0 -8 0 15 -261234 -1 -1 0 256;
#X obj 672 -82 nbx 5 28 -1e+037 1e+037 0 0 empty initial_root Initial_Root
0 -8 0 15 -204786 -1 -1 0 256;
#X obj 10 -82 s init_bang;
#X msg 5 -54 \; scale_steps 0 0 2 4 5 7 9 11 2 5 4;
#X obj -20 267 to_ableton;
#X obj 17 157 spigot;
#X obj 42 121 tgl 15 0 empty empty empty 17 7 0 10 -262144 -1 -1 0
1;
#X obj 42 101 bng 15 250 50 0 empty empty empty 17 7 0 10 -262144 -1
-1;
#X obj 17 201 i;
#X obj 43 201 + 1;
#X obj 72 160 == 0;
#X obj 72 209 spigot;
#X floatatom 84 181 5 0 0 0 - - -, f 5;
#X msg 380 -158 50;
#X text 90 -70 0 1 2 3 4 5 6 7 8 9;
#X msg 32 179 1;
#X obj 27 224 % 6;
#X obj -6 62 r seq_init;
#X obj -6 82 sel 0;
#X msg -6 104 0;
#X obj 72 126 sel 0;
#X obj 78 101 % 8;
#X obj -11 137 bng 15 250 50 0 empty empty empty 17 7 0 10 -262144
-1 -1;
#X obj 96 782 create_sequence3;
#X obj 191 95 % 8;
#X obj 309 449 tgl 15 0 empty empty empty 17 7 0 10 -262144 -1 -1 0
1;
#X obj 279 430 bng 15 250 50 0 empty empty empty 17 7 0 10 -262144
-1 -1;
#X obj 295 469 spigot;
#X obj 47 410 bng 15 250 50 0 empty empty empty 17 7 0 10 -262144 -1
-1;
#X obj 49 561 bng 15 250 50 0 empty empty empty 17 7 0 10 -262144 -1
-1;
#X obj 101 760 bng 15 250 50 0 empty empty empty 17 7 0 10 -262144
-1 -1;
#X obj 262 770 bng 15 250 50 0 empty empty empty 17 7 0 10 -262144
-1 -1;
#X obj 277 373 r plant1;
#X obj 339 372 r BegoniaState1;
#X obj 502 398 >=;
#X obj 456 372 r plant2;
#X obj 626 372 r plant3;
#X obj 856 372 r plant4;
#X obj 519 372 r LittleGuyState1;
#X obj 689 372 r LeafyState1;
#X obj 919 372 r PokeyState1;
#X obj 34 340 statetrigger;
#X obj 20 307 r plant1;
#X obj 34 511 statetrigger;
#X obj 20 478 r plant2;
#X obj 99 306 r BegoniaState1;
#X obj 94 715 statetrigger;
#X obj 159 681 r LeafyState1;
#X obj 80 682 r plant3;
#X obj 278 715 statetrigger;
#X obj 99 477 r LittleGuyState1;
#X obj 343 681 r PokeyState1;
#X obj 264 682 r plant4;
#X obj 322 398 <=;
#X obj 902 398 <=;
#X obj 837 -4 osc-receiver-vanilla;
#X obj 672 398 <=;
#X obj 806 25 volume_controller;
#X obj 628 87 new_volume_controller;
#X connect 1 0 0 0;
#X connect 1 0 69 0;
#X connect 1 0 3 0;
#X connect 1 0 68 0;
#X connect 2 0 6 0;
#X connect 3 0 4 0;
#X connect 3 0 5 0;
#X connect 6 0 7 0;
#X connect 7 0 11 0;
#X connect 9 0 10 0;
#X connect 10 0 52 0;
#X connect 11 0 18 0;
#X connect 11 0 93 0;
#X connect 11 1 20 0;
#X connect 11 4 49 0;
#X connect 11 5 48 0;
#X connect 11 6 40 0;
#X connect 11 7 39 0;
#X connect 11 8 27 0;
#X connect 11 9 23 0;
#X connect 11 10 124 0;
#X connect 13 0 14 0;
#X connect 17 0 16 0;
#X connect 18 0 14 1;
#X connect 20 0 18 1;
#X connect 20 0 19 0;
#X connect 21 0 16 1;
#X connect 23 0 21 1;
#X connect 23 0 22 0;
#X connect 24 0 25 0;
#X connect 24 0 87 0;
#X connect 24 0 90 0;
#X connect 25 0 24 1;
#X connect 26 0 59 0;
#X connect 27 0 17 0;
#X connect 27 0 21 0;
#X connect 28 0 27 1;
#X connect 29 0 28 0;
#X connect 30 0 15 0;
#X connect 31 0 89 0;
#X connect 33 0 53 0;
#X connect 34 0 35 0;
#X connect 37 0 36 1;
#X connect 39 0 37 1;
#X connect 39 0 38 0;
#X connect 40 0 37 0;
#X connect 40 0 43 0;
#X connect 41 0 40 1;
#X connect 42 0 41 0;
#X connect 43 0 36 0;
#X connect 44 0 45 0;
#X connect 46 0 45 1;
#X connect 48 0 46 1;
#X connect 48 0 47 0;
#X connect 49 0 44 0;
#X connect 49 0 46 0;
#X connect 50 0 49 1;
#X connect 51 0 50 0;
#X connect 52 0 32 0;
#X connect 52 0 11 1;
#X connect 53 0 63 0;
#X connect 53 0 1 0;
#X connect 53 0 79 0;
#X connect 54 0 55 0;
#X connect 55 0 56 0;
#X connect 56 0 41 0;
#X connect 56 0 28 0;
#X connect 56 0 50 0;
#X connect 57 0 12 0;
#X connect 62 0 94 0;
#X connect 62 0 95 0;
#X connect 62 0 96 0;
#X connect 62 0 97 0;
#X connect 62 2 15 0;
#X connect 62 2 35 0;
#X connect 62 2 89 0;
#X connect 62 4 15 0;
#X connect 62 4 35 0;
#X connect 62 4 89 0;
#X connect 63 0 24 0;
#X connect 71 0 74 0;
#X connect 72 0 71 1;
#X connect 72 0 76 0;
#X connect 73 0 72 0;
#X connect 74 0 75 0;
#X connect 74 0 82 0;
#X connect 75 0 74 1;
#X connect 76 0 78 0;
#X connect 76 0 77 0;
#X connect 77 0 70 6;
#X connect 77 0 81 0;
#X connect 78 0 77 1;
#X connect 79 0 2 0;
#X connect 81 0 74 1;
#X connect 82 0 70 5;
#X connect 83 0 84 0;
#X connect 84 0 85 0;
#X connect 85 0 72 0;
#X connect 86 0 71 0;
#X connect 87 0 86 0;
#X connect 88 0 71 0;
#X connect 90 0 58 0;
#X connect 90 0 62 0;
#X connect 91 0 93 1;
#X connect 92 0 91 0;
#X connect 93 0 13 0;
#X connect 94 0 12 0;
#X connect 95 0 15 0;
#X connect 96 0 89 0;
#X connect 97 0 35 0;
#X connect 98 0 119 0;
#X connect 99 0 119 1;
#X connect 100 0 50 0;
#X connect 101 0 100 0;
#X connect 102 0 122 0;
#X connect 103 0 120 0;
#X connect 104 0 100 1;
#X connect 105 0 122 1;
#X connect 106 0 120 1;
#X connect 107 0 57 0;
#X connect 108 0 107 0;
#X connect 109 0 95 0;
#X connect 110 0 109 0;
#X connect 111 0 107 1;
#X connect 112 0 96 0;
#X connect 113 0 112 1;
#X connect 114 0 112 0;
#X connect 115 0 97 0;
#X connect 116 0 109 1;
#X connect 117 0 115 1;
#X connect 118 0 115 0;
#X connect 119 0 91 0;
#X connect 120 0 28 0;
#X connect 122 0 41 0;
